<svg height="480pt" viewBox="-4 0 480 480" width="480pt" xmlns="http://www.w3.org/2000/svg"><path d="m264 352h56v32h-56zm0 0" fill="#707070"/><path d="m456 0v185.371094c0 4.246094-1.6875 8.316406-4.6875 11.316406l-86.625 86.625c-3 3-7.070312 4.6875-11.316406 4.6875h-329.371094c-8.835938 0-16-7.164062-16-16v-272zm0 0" fill="#efefef"/><path d="m451.3125 196.6875-86.625 86.625c-1.359375 1.339844-2.945312 2.421875-4.6875 3.199219v-78.511719c0-8.835938 7.164062-16 16-16h78.511719c-.777344 1.742188-1.859375 3.328125-3.199219 4.6875zm0 0" fill="#d6d6d6"/><path d="m424 96c0 35.347656-28.652344 64-64 64s-64-28.652344-64-64 28.652344-64 64-64 64 28.652344 64 64zm0 0" fill="#ff675b"/><path d="m296 96h48c8.835938 0 16 7.164062 16 16v48c-35.347656 0-64-28.652344-64-64zm0 0" fill="#cc5249"/><path d="m248 160h-32c-8.835938 0-16-7.164062-16-16v-32c0-8.835938 7.164062-16 16-16h32c8.835938 0 16 7.164062 16 16v32c0 8.835938-7.164062 16-16 16zm0 0" fill="#75c1ff"/><path d="m56 192h32c4.417969 0 8 3.582031 8 8v32c0 4.417969-3.582031 8-8 8h-32c-4.417969 0-8-3.582031-8-8v-32c0-4.417969 3.582031-8 8-8zm0 0" fill="#73c97c"/><path d="m56 32h16c4.417969 0 8 3.582031 8 8v16c0 4.417969-3.582031 8-8 8h-16c-4.417969 0-8-3.582031-8-8v-16c0-4.417969 3.582031-8 8-8zm0 0" fill="#ffd04a"/><path d="m264 368c0 57.4375-46.5625 104-104 104s-104-46.5625-104-104 46.5625-104 104-104 104 46.5625 104 104zm0 0" fill="#75c1ff"/><path d="m472 328h-136c-8.835938 0-16 7.164062-16 16v48c0 8.835938 7.164062 16 16 16h136" fill="#cc995e"/><path d="m48 280-24 .003906c-4.417969-.003906-7.996094-3.582031-8-8v-272.003906h-16v272.003906c.015625 13.25 10.75 23.984375 24 24l24-.003906zm0 0"/><path d="m376 184.003906c-13.25.015625-23.984375 10.75-24 24v72l-80-.003906v16l81.375.003906c6.367188.015625 12.480469-2.515625 16.96875-7.03125l86.625-86.628906c4.515625-4.492188 7.046875-10.601562 7.03125-16.96875v-185.375h-16v184.003906zm-8 84.6875v-60.6875c.003906-4.417968 3.582031-7.996094 8-8h60.683594zm0 0"/><path d="m192 112v32c.015625 13.25 10.75 23.984375 24 24h32c13.25-.015625 23.984375-10.75 24-24v-32c-.015625-13.25-10.75-23.984375-24-24h-32c-13.25.015625-23.984375 10.75-24 24zm64 0v32c-.003906 4.417969-3.582031 7.996094-8 8h-32c-4.417969-.003906-7.996094-3.582031-8-8v-32c.003906-4.417969 3.582031-7.996094 8-8h32c4.417969.003906 7.996094 3.582031 8 8zm0 0"/><path d="m56 248h32c8.832031-.011719 15.988281-7.167969 16-16v-32c-.011719-8.832031-7.167969-15.988281-16-16h-32c-8.832031.011719-15.988281 7.167969-16 16v32c.011719 8.832031 7.167969 15.988281 16 16zm0-48h32l.007812 32h-32.007812zm0 0"/><path d="m56 72h16c8.832031-.011719 15.988281-7.167969 16-16v-16c-.011719-8.832031-7.167969-15.988281-16-16h-16c-8.832031.011719-15.988281 7.167969-16 16v16c.011719 8.832031 7.167969 15.988281 16 16zm0-32h16l.007812 16h-16.007812zm0 0"/><path d="m120 224h16v16h-16zm0 0"/><path d="m152 224h136v16h-136zm0 0"/><path d="m304 224h16v16h-16zm0 0"/><path d="m120 192h16v16h-16zm0 0"/><path d="m152 192h136v16h-136zm0 0"/><path d="m304 192h16v16h-16zm0 0"/><path d="m160 120h16v16h-16zm0 0"/><path d="m160 152h16v16h-16zm0 0"/><path d="m160 88h16v16h-16zm0 0"/><path d="m40 88h16v16h-16zm0 0"/><path d="m72 88h72v16h-72zm0 0"/><path d="m40 120h16v16h-16zm0 0"/><path d="m72 120h72v16h-72zm0 0"/><path d="m40 152h16v16h-16zm0 0"/><path d="m72 152h72v16h-72zm0 0"/><path d="m360 168c39.765625 0 72-32.234375 72-72s-32.234375-72-72-72-72 32.234375-72 72c.042969 39.746094 32.253906 71.957031 72 72zm-55.359375-64h39.359375c4.417969.003906 7.996094 3.582031 8 8v39.359375c-24.523438-3.574219-43.785156-22.835937-47.359375-47.359375zm55.359375-64c29.367188-.019531 53.75 22.664062 55.855469 51.957031 2.105469 29.289063-18.789063 55.222657-47.855469 59.402344v-39.359375c-.015625-13.25-10.75-23.984375-24-24h-39.359375c3.988281-27.519531 27.554687-47.949219 55.359375-48zm0 0"/><path d="m336 336h136v-16h-136c-13.25.015625-23.984375 10.75-24 24h-42.65625c-12.253906-55.855469-64.617188-93.511719-121.46875-87.347656-56.847656 6.164062-99.929688 54.164062-99.929688 111.347656s43.082032 105.183594 99.929688 111.347656c56.851562 6.164063 109.214844-31.492187 121.46875-87.347656h42.65625c.015625 13.25 10.75 23.984375 24 24h136v-16h-136c-4.417969-.003906-7.996094-3.582031-8-8v-48c.003906-4.417969 3.582031-7.996094 8-8zm-176 128c-53.019531 0-96-42.980469-96-96s42.980469-96 96-96 96 42.980469 96 96c-.058594 52.996094-43.003906 95.941406-96 96zm111.59375-88c.191406-2.652344.40625-5.300781.40625-8s-.214844-5.347656-.40625-8h40.40625v16zm0 0"/><path d="m104 56h16v16h-16zm0 0"/><path d="m136 56h96v16h-96zm0 0"/><path d="m248 56h16v16h-16zm0 0"/><path d="m104 24h16v16h-16zm0 0"/><path d="m136 24h96v16h-96zm0 0"/><path d="m248 24h16v16h-16zm0 0"/></svg>