<svg height="512pt" viewBox="0 0 512.0002 512" width="512pt" xmlns="http://www.w3.org/2000/svg"><g fill="#36d28f"><path d="m285.136719 383.550781c-21.871094 0-39.605469-17.730469-39.605469-39.605469 0-17.964843 14.566406-32.53125 32.535156-32.53125 10.152344 0 18.386719-8.230468 18.386719-18.386718 0-27.339844 22.164063-49.503906 49.503906-49.503906h75.714844c-4.070313-14.566407-10.003906-28.351563-17.535156-41.085938-30.710938-28.574219-71.878907-46.066406-117.136719-46.066406-94.992188 0-171.996094 77.007812-171.996094 172 0 31.921875 8.707032 61.808594 23.863282 87.429687 30.707031 28.578125 71.875 46.066407 117.132812 46.066407 60.4375 0 113.585938-31.175782 144.261719-78.316407zm0 0"/><path d="m265.460938 75.21875v1.402344h11.070312c25.527344 0 46.21875-20.691406 46.21875-46.214844v-1.40625h-11.070312c-25.527344 0-46.21875 20.691406-46.21875 46.21875zm0 0"/><path d="m213.25 19.667969v20.402343c0 14.746094 6.910156 27.863282 17.660156 36.324219 1.5.148438 3.019532.226563 4.558594.226563h20.40625v-20.402344c0-14.742188-6.914062-27.863281-17.664062-36.324219-1.5-.148437-3.019532-.226562-4.554688-.226562zm0 0"/></g><path d="m119.378906 289.042969h80.769532c15.191406 0 27.511718-12.316407 27.511718-27.511719v-1.128906c0-15.191406 12.3125-27.507813 27.507813-27.507813 15.191406 0 27.511719-12.316406 27.511719-27.511719v-6.015624c0-11.550782-7.125-21.433594-17.214844-25.511719h-99.246094c-28.460938 30.164062-46.121094 70.617187-46.839844 115.1875zm0 0" fill="#b2f0bf"/><path d="m400.699219 382.882812c17.273437-26.816406 27.300781-58.742187 27.300781-93.011718 0-7.347656-.484375-14.578125-1.378906-21.679688h-59.332032c-27.339843 0-49.503906 22.160156-49.503906 49.503906 0 10.152344-8.230468 18.386719-18.386718 18.386719-17.964844 0-32.53125 14.566407-32.53125 32.53125 0 4.105469.625 8.0625 1.785156 11.789063 4.300781 1.601562 8.957031 2.480468 13.820312 2.480468zm0 0" fill="#b2f0bf"/><path d="m501.996094 243.398438-33.042969 16.648437c-42.257813 21.292969-79.175781 51.839844-108 89.367187l-18.21875 23.71875c-5.75 7.488282-6.835937 17.558594-2.8125 26.101563 6.019531 12.773437 21.355469 18.113281 34.007813 11.839844l50.402343-50.710938-1.359375 2.179688c-14.695312 23.527343-35.632812 42.515625-60.484375 54.839843l-71.648437 35.535157c-8.785156 4.355469-14.339844 13.3125-14.339844 23.117187 0 18.226563 18.375 30.707032 35.316406 23.988282l65.914063-26.132813c45.4375-18.015625 83.226562-51.21875 106.941406-93.957031l17.324219-31.222656zm0 0" fill="#feda9b"/><path d="m10.003906 243.398438 33.042969 16.648437c42.257813 21.292969 79.175781 51.839844 108 89.367187l18.21875 23.71875c5.75 7.488282 6.835937 17.558594 2.8125 26.101563-6.019531 12.773437-21.355469 18.113281-34.007813 11.839844l-50.402343-50.710938 1.359375 2.179688c14.695312 23.527343 35.632812 42.515625 60.484375 54.839843l71.648437 35.535157c8.785156 4.355469 14.339844 13.3125 14.339844 23.117187 0 18.226563-18.375 30.707032-35.316406 23.988282l-65.914063-26.132813c-45.4375-18.015625-83.226562-51.21875-106.941406-93.957031l-17.324219-31.222656zm0 0" fill="#feda9b"/><path d="m429.628906 351.882812c-4.683594-2.925781-10.851562-1.5-13.777344 3.1875l-1.359374 2.175782c-11.484376 18.386718-27.035157 33.765625-45.402344 45.042968-3.589844 1.660157-7.605469 1.871094-11.363282.5625-3.890624-1.351562-7-4.152343-8.757812-7.878906-2.4375-5.175781-1.789062-11.210937 1.699219-15.75l18.214843-23.714844c27.742188-36.117187 63.902344-66.039062 104.570313-86.53125l33.042969-16.648437c4.933594-2.484375 6.917968-8.496094 4.433594-13.429687-2.484376-4.929688-8.5-6.914063-13.433594-4.429688l-33.042969 16.644531c-9.546875 4.8125-18.859375 10.109375-27.894531 15.859375-5.167969-41.25-24.21875-79.316406-54.5625-108.433594-31.632813-30.355468-72.503906-48.03125-115.996094-50.386718v-21.53125h10.53125c31 0 56.21875-25.21875 56.21875-56.214844v-20.40625c0-5.523438-4.480469-10-10-10h-20.40625c-19.214844 0-36.199219 9.695312-46.34375 24.445312-10.144531-14.75-27.128906-24.445312-46.34375-24.445312h-20.40625c-5.519531 0-10 4.476562-10 10v20.40625c0 30.996094 25.21875 56.214844 56.21875 56.214844h10.53125v21.53125c-87.90625 4.757812-159.691406 71.855468-170.570312 158.8125-9.035157-5.746094-18.34375-11.042969-27.882813-15.851563l-33.042969-16.644531c-4.9375-2.488281-10.945312-.5-13.433594 4.429688-2.484374 4.933593-.5 10.945312 4.433594 13.429687l33.042969 16.648437c40.667969 20.492188 76.828125 50.414063 104.570313 86.53125l18.21875 23.714844c3.484374 4.539063 4.132812 10.574219 1.695312 15.75-1.757812 3.726563-4.867188 6.527344-8.757812 7.878906-3.757813 1.308594-7.769532 1.097657-11.363282-.5625-18.367187-11.277343-33.917968-26.65625-45.402344-45.042968l-1.355468-2.175782c-2.925782-4.6875-9.097656-6.113281-13.78125-3.1875-4.683594 2.925782-6.109375 9.09375-3.183594 13.777344l1.359375 2.179688c13.121094 21.015625 30.898437 38.589844 51.890625 51.484375.277344.1875.566406.363281.867188.527343 3.824218 2.316407 7.738281 4.496094 11.765624 6.492188l71.644532 35.535156c5.417968 2.6875 8.785156 8.113282 8.785156 14.160156 0 5.320313-2.523438 10.085938-6.925781 13.074219-4.402344 2.988281-9.761719 3.578125-14.707031 1.617188l-65.914063-26.136719c-43.167969-17.113281-79.351563-48.902344-101.882813-89.511719l-17.324218-31.222656c-2.679688-4.828125-8.769532-6.570313-13.59375-3.890625-4.832032 2.679688-6.574219 8.765625-3.894532 13.59375l17.324219 31.222656c24.769531 44.640625 64.546875 79.585938 112 98.402344l65.914063 26.132812c4.269531 1.695313 8.746094 2.527344 13.203125 2.527344 7.070312 0 14.089843-2.097656 20.113281-6.191406 9.824219-6.671875 15.6875-17.746094 15.6875-29.617188 0-1.519531-.109375-3.015624-.292969-4.492187 3.59375.207031 7.199219.320313 10.792969.320313s7.199219-.113282 10.792969-.324219c-.183594 1.476562-.292969 2.976562-.292969 4.496093 0 11.871094 5.863281 22.945313 15.6875 29.617188 6.023438 4.09375 13.042969 6.191406 20.113281 6.191406 4.457031 0 8.9375-.835937 13.203125-2.527344l65.914063-26.132812c13.066406-5.179688 25.695312-11.644531 37.542969-19.207031 4.65625-2.972657 6.019531-9.15625 3.046874-13.8125-2.96875-4.648438-9.148437-6.015625-13.808593-3.046875-10.777344 6.882812-22.269531 12.761718-34.152344 17.472656l-65.914063 26.136719c-4.945312 1.960937-10.304687 1.371093-14.707031-1.617188-4.402343-2.988281-6.925781-7.757812-6.925781-13.074219 0-6.050781 3.363281-11.476562 8.78125-14.160156l71.648438-35.535156c4.023437-1.996094 7.941406-4.175781 11.765624-6.492188.300782-.164062.589844-.339843.867188-.527343 20.988281-12.894531 38.769531-30.46875 51.890625-51.488281l1.359375-2.175782c2.925781-4.683594 1.5-10.851562-3.183594-13.777344zm-76.605468-8.558593-18.21875 23.714843c-1.417969 1.847657-2.625 3.8125-3.636719 5.84375h-48.699219c-16.320312 0-29.601562-13.277343-29.601562-29.601562 0-12.425781 10.105468-22.53125 22.53125-22.53125 15.652343 0 28.386718-12.734375 28.386718-28.386719 0-21.785156 17.722656-39.507812 39.503906-39.507812h70.480469c2.03125 8.765625 3.359375 17.808593 3.917969 27.078125-24.363281 18.015625-46.253906 39.421875-64.664062 63.390625zm-86.894532-287.105469c0-19.972656 16.246094-36.21875 36.214844-36.21875h10.40625v10.40625c0 19.96875-16.246094 36.214844-36.21875 36.214844h-10.402344zm-20.253906 10.402344h-10.40625c-19.972656 0-36.21875-16.246094-36.21875-36.214844v-10.40625h10.40625c19.96875 0 36.21875 16.246094 36.21875 36.21875zm-136.996094 155.25h45.789063c5.523437 0 10-4.476563 10-10 0-5.523438-4.476563-10-10-10h-34.765625c4.578125-7.074219 9.699218-13.765625 15.296875-20.015625h119.96875c9.65625 0 17.511719 7.855469 17.511719 17.511719v6.019531c0 9.652343-7.855469 17.507812-17.511719 17.507812-20.683594 0-37.507813 16.828125-37.507813 37.507813v1.132812c0 9.652344-7.855468 17.507813-17.511718 17.507813h-105.78125c1.34375-20.351563 6.40625-39.625 14.511718-57.171875zm177.519532 222.089844c-3.480469 1.726562-6.570313 3.964843-9.234376 6.578124-.234374.011719-.46875.023438-.703124.050782-13.308594 1.679687-27.128907 1.699218-40.441407.0625-.382812-.050782-.761719-.070313-1.140625-.074219-2.671875-2.628906-5.777344-4.882813-9.273437-6.617187l-55.132813-27.34375c4.515625-3.394532 8.171875-7.855469 10.652344-13.121094 5.644531-11.980469 4.140625-25.953125-3.929688-36.457032l-18.21875-23.714843c-12.273437-15.984375-26.101562-30.824219-41.175781-44.28125h82.347657c20.683593 0 37.511718-16.828125 37.511718-37.511719v-1.128906c0-9.652344 7.851563-17.507813 17.507813-17.507813 20.683593 0 37.511719-16.828125 37.511719-37.511719v-6.019531c0-20.679687-16.828126-37.507812-37.511719-37.507812h-98.519531c27.480468-21.332031 61.988281-33.984375 99.351562-33.984375 69.421875 0 128.726562 43.339844 151.753906 104.984375h-64.464844c-32.808593 0-59.503906 26.691406-59.503906 59.503906 0 4.625-3.761718 8.386719-8.386718 8.386719-23.453126 0-42.53125 19.082031-42.53125 42.53125 0 27.351562 22.25 49.605468 49.605468 49.605468h45.328125c.457031 3.613282 1.46875 7.195313 3.078125 10.609376 2.480469 5.269531 6.132813 9.726562 10.648438 13.121093zm0 0"/><path d="m438.414062 423.5-.289062.273438c-4 3.804687-4.160156 10.136718-.351562 14.136718 1.964843 2.066406 4.601562 3.109375 7.246093 3.109375 2.476563 0 4.953125-.914062 6.890625-2.757812l.191406-.183594c4.027344-3.777344 4.226563-10.105469.445313-14.132813-3.78125-4.023437-10.105469-4.222656-14.132813-.445312zm0 0"/><path d="m506.851562 339.96875c-4.832031-2.679688-10.917968-.9375-13.597656 3.894531l-17.324218 31.222657c-3.589844 6.464843-7.578126 12.804687-11.859376 18.835937-3.195312 4.503906-2.136718 10.746094 2.367188 13.941406 1.757812 1.246094 3.777344 1.847657 5.78125 1.847657 3.128906 0 6.214844-1.46875 8.164062-4.214844 4.703126-6.632813 9.089844-13.601563 13.035157-20.707032l17.324219-31.222656c2.679687-4.832031.9375-10.917968-3.890626-13.597656zm0 0"/><path d="m194.671875 221.875c2.628906 0 5.207031-1.070312 7.070313-2.929688 1.859374-1.863281 2.929687-4.441406 2.929687-7.070312 0-2.632812-1.070313-5.210938-2.929687-7.082031-1.863282-1.859375-4.441407-2.917969-7.070313-2.917969-2.632813 0-5.210937 1.058594-7.070313 2.917969-1.871093 1.871093-2.929687 4.449219-2.929687 7.082031 0 2.628906 1.058594 5.207031 2.929687 7.070312 1.859376 1.859376 4.4375 2.929688 7.070313 2.929688zm0 0"/></svg>