<svg height="480pt" viewBox="0 0 480 480.09985" width="480pt" xmlns="http://www.w3.org/2000/svg"><path d="m303.753906 277.066406c20.707032-9.660156 34.679688-29.636718 36.65625-52.398437-18.707031-13.121094-42.996094-15.253907-63.703125-5.597657s-34.683593 29.632813-36.65625 52.398438c18.707031 13.117188 42.992188 15.253906 63.703125 5.597656zm0 0" fill="#00ccb3"/><path d="m203.394531 219.066406c-20.710937-9.652344-44.996093-7.515625-63.703125 5.601563 1.972656 22.761719 15.949219 42.742187 36.65625 52.398437 20.707032 9.65625 44.996094 7.523438 63.703125-5.597656-1.976562-22.761719-15.953125-42.738281-36.65625-52.402344zm0 0" fill="#00ccb3"/><path d="m472.050781 472.101562h-464c0-39.761718 32.238281-64 72-64 2.726563 0 5.449219.160157 8.160157.476563 20.523437-43.746094 58.917968-76.515625 105.347656-89.910156 46.429687-13.390625 96.382812-6.105469 137.050781 19.992187 18.574219 11.949219 34.632813 27.414063 47.28125 45.519532 52.160156.960937 94.160156 35.519531 94.160156 87.921874zm0 0" fill="#a97c50"/><path d="m472.050781 472.101562h-344.640625c75.859375-30.667968 144.914063-76.015624 203.199219-133.441406 18.574219 11.949219 34.632813 27.414063 47.28125 45.519532 52.160156.960937 94.160156 35.519531 94.160156 87.921874zm0 0" fill="#8b5e3c"/><path d="m336.050781 104.101562c0 53.019532-42.980469 96-96 96s-96-42.980468-96-96c0-53.019531 42.980469-96 96-96s96 42.980469 96 96zm0 0" fill="#ffd422"/><path d="m312.050781 104.101562c0 39.761719-32.238281 72-72 72-39.765625 0-72-32.238281-72-72 0-39.765624 32.234375-72 72-72 19.105469-.039062 37.441407 7.535157 50.949219 21.046876 13.511719 13.511718 21.085938 31.84375 21.050781 50.953124zm0 0" fill="#ff7956"/><path d="m264.050781 88.101562c0 13.253907-10.746093 24-24 24-13.253906 0-24-10.746093-24-24 0-13.257812 10.746094-24 24-24 13.253907 0 24 10.742188 24 24zm0 0" fill="#ffb655"/><path d="m268.371094 123.78125c-11.460938-11.421875-28.664063-14.828125-43.609375-8.632812-14.945313 6.195312-24.695313 20.773437-24.710938 36.953124v11.839844c24.203125 16.210938 55.796875 16.210938 80 0v-11.839844c0-10.613281-4.199219-20.792968-11.679687-28.320312zm0 0" fill="#ffb655"/><path d="m320.050781 104.101562c0-44.183593-35.816406-80-80-80-44.183593 0-80 35.816407-80 80 0 44.179688 35.816407 80 80 80 44.160157-.050781 79.949219-35.839843 80-80zm-112 55.335938v-7.335938c0-17.675781 14.324219-32 32-32 17.671875 0 32 14.324219 32 32v7.335938c-19.769531 11.550781-44.230469 11.550781-64 0zm16-71.335938c0-8.839843 7.164063-16 16-16 8.835938 0 16 7.160157 16 16 0 8.835938-7.164062 16-16 16-8.835937 0-16-7.164062-16-16zm-48 16c-.066406-28.554687 18.785157-53.695312 46.210938-61.628906 27.429687-7.9375 56.792969 3.257813 71.980469 27.433594s12.523437 55.488281-6.527344 76.753906c-1.660156-15.472656-10.800782-29.148437-24.464844-36.601562 12.0625-12.644532 11.746094-32.628906-.707031-44.890625-12.457031-12.257813-32.441407-12.257813-44.898438 0-12.453125 12.261719-12.769531 32.246093-.707031 44.890625-13.609375 7.511718-22.746094 21.136718-24.527344 36.578125-10.515625-11.675781-16.34375-26.824219-16.359375-42.535157zm0 0"/><path d="m382.097656 376.332031c-31.480468-43.050781-80.769531-69.523437-134.046875-71.992187v-19.441406c9.074219 4.003906 18.878907 6.097656 28.800781 6.152343 37.253907.011719 68.320313-28.484375 71.527344-65.597656.253906-2.859375-1.039062-5.632813-3.394531-7.273437-21.070313-14.683594-48.355469-17.078126-71.664063-6.289063-9.824218 4.625-18.46875 11.429687-25.269531 19.898437v-24.097656c55.714844-4.296875 98.074219-51.855468 95.921875-107.695312-2.152344-55.835938-48.042968-99.996094-103.921875-99.996094-55.882812 0-101.773437 44.160156-103.921875 99.996094-2.152344 55.839844 40.207032 103.398437 95.921875 107.695312v24.097656c-6.792969-8.503906-15.4375-15.347656-25.273437-20-23.308594-10.789062-50.589844-8.398437-71.664063 6.285157-2.351562 1.640625-3.644531 4.417969-3.390625 7.273437 1.890625 23.101563 14.855469 43.851563 34.785156 55.679688 19.933594 11.832031 44.359376 13.273437 65.542969 3.871094v19.519531c-63.089843 3.089843-119.746093 39.589843-148.632812 95.761719-1.121094-.078126-2.230469-.078126-3.367188-.078126-46.351562 0-79.9999998 30.277344-79.9999998 72 0 4.417969 3.5820308 8 7.9999998 8h464c4.417969 0 8-3.582031 8-8 0-53.203124-40.945312-92.921874-97.953125-95.769531zm-102.007812-150.015625c16.597656-7.6875 35.898437-6.804687 51.726562 2.359375-3.101562 18.046875-14.855468 33.425781-31.449218 41.160157-16.597657 7.738281-35.933594 6.847656-51.75-2.375 3.171874-18.019532 14.910156-33.367188 31.472656-41.144532zm-100.359375 43.503906c-16.554688-7.78125-28.285157-23.128906-31.449219-41.144531 15.816406-9.226562 35.152344-10.113281 51.75-2.375 16.59375 7.734375 28.347656 23.113281 31.449219 41.160157-15.832031 9.175781-35.148438 10.058593-51.75 2.359374zm-27.679688-165.71875c0-48.601562 39.398438-88 88-88 48.601563 0 88 39.398438 88 88 0 48.597657-39.398437 88-88 88-48.578125-.058593-87.945312-39.425781-88-88zm-135.464843 360c3.910156-28.640624 28.910156-48 63.464843-48 2.40625.007813 4.808594.15625 7.199219.4375 3.414062.4375 6.714844-1.402343 8.144531-4.535156 24.269531-51.714844 74.308594-86.535156 131.234375-91.320312 56.925782-4.789063 112.078125 21.183594 144.644532 68.121094 1.464843 2.097656 3.84375 3.371093 6.402343 3.421874 47.03125.882813 81.925781 30.648438 85.933594 71.90625zm0 0"/></svg>