<svg height="511pt" viewBox="1 -1 511.999 511" width="511pt" xmlns="http://www.w3.org/2000/svg"><path d="m292.179688 235.804688s43.734374-67.417969 124.925781-25.234376c5.632812 2.925782 6.414062 8.839844 1.679687 12.523438-16.375 12.75-58.289062 36.046875-126.605468 12.710938zm0 0" fill="#20b7a1"/><path d="m139.601562 326.515625v76.792969c0 7.855468 6.367188 14.222656 14.21875 14.222656h288.765626c7.855468 0 14.222656-6.367188 14.222656-14.222656v-37.644532l-127.351563-86.828124c-20.71875-16.339844-49.265625-18.507813-72.210937-5.484376z" fill="#c1924d"/><path d="m494.199219 403.871094-172.480469 87.453125c-23.175781 14.746093-52.652344 14.488281-75.457031-.199219-10.707031-6.902344-14.066407-7.570312-70.359375-35.402344-25.015625-12.238281-47.800782-16.132812-84.945313-20.710937v-108.039063h123.179688c7.648437 0 14.976562 3.042969 20.386719 8.453125 1.695312 1.691407-11.238282-11.234375 55.40625 55.394531 5.0625 5.0625 7.570312 11.820313 7.386718 18.507813l1.183594-.8125 180.789062-45.515625c23.957032-3.027344 34.683594 28.316406 14.910157 40.871094zm0 0" fill="#f2bb88"/><path d="m290.621094 425.449219c-9.507813 9.832031-25.148438 9.984375-34.847656.308593l-46.066407-46.078124c-2.460937-2.460938-5.796875-3.84375-9.273437-3.84375h-109.476563v-48.859376h123.179688c7.652343 0 14.980469 3.039063 20.386719 8.445313 1.695312 1.691406-11.234376-11.234375 55.40625 55.394531 9.402343 9.402344 10.074218 24.921875.691406 34.632813zm0 0" fill="#f2d1a5"/><path d="m97.121094 323.976562v133.566407c0 1.898437-.183594 3.765625-.515625 5.570312 0 0 0 0-.007813 0-2.628906 14.136719-15.097656 24.925781-29.972656 24.925781h-28.601562c-16.773438 0-30.496094-13.722656-30.496094-30.496093v-133.566407c0-14.949218 10.894531-27.464843 25.136718-30.015624 1.746094-.320313 3.535157-.480469 5.359376-.480469h28.601562c16.773438 0 30.496094 13.722656 30.496094 30.496093zm0 0" fill="#4172cc"/><path d="m97.121094 323.976562v133.566407c0 1.898437-.183594 3.765625-.515625 5.570312 0 0 0 0-.007813 0-1.746094.324219-3.535156.484375-5.371094.484375h-28.589843c-16.773438 0-30.496094-13.722656-30.496094-30.496094v-133.570312c0-1.894531.183594-3.761719.523437-5.570312 1.746094-.320313 3.535157-.480469 5.359376-.480469h28.601562c16.773438 0 30.496094 13.722656 30.496094 30.496093zm0 0" fill="#6990d7"/><path d="m357.875 155.78125c-14.328125 15.609375-32.972656 24.867188-52.429688 27.632812-25.214843 3.589844-51.785156-3.742187-72.007812-22.3125-35.839844-32.890624-38.21875-88.609374-5.320312-124.4375 20.40625-22.238281 49.605468-31.589843 77.386718-27.632812 16.992188 2.421875 33.457032 9.820312 47.050782 22.3125 35.839843 32.890625 38.21875 88.609375 5.320312 124.4375zm0 0" fill="#ffe89c"/><path d="m357.875 155.78125c-14.328125 15.609375-32.972656 24.867188-52.429688 27.632812-16.992187-2.421874-33.457031-9.820312-47.050781-22.3125-35.839843-32.890624-38.21875-88.609374-5.320312-124.4375 14.328125-15.609374 32.972656-24.867187 52.429687-27.632812 16.992188 2.421875 33.457032 9.820312 47.050782 22.3125 35.839843 32.890625 38.21875 88.609375 5.320312 124.4375zm0 0" fill="#fcf2b6"/><path d="m355.035156 107.996094c-2.9375 15.5625-11.5625 29.359375-24.265625 38.84375-7.730469 5.769531-16.363281 9.492187-25.242187 11.273437-23.175782 4.648438-48.070313-3.949219-63.117188-24.117187-10.542968-14.136719-14.710937-32.179688-11.429687-49.515625 2.9375-15.570313 11.566406-29.363281 24.265625-38.84375 13.519531-10.085938 30.152344-14.300781 46.84375-11.878907 1.109375.15625 2.21875.347657 3.3125.566407 15.324218 3.054687 28.800781 11.539062 38.203125 24.15625 10.546875 14.128906 14.710937 32.179687 11.429687 49.515625zm0 0" fill="#dbad5c"/><path d="m355.035156 107.996094c-2.9375 15.5625-11.5625 29.359375-24.265625 38.84375-7.730469 5.769531-16.363281 9.492187-25.242187 11.273437-14.753906-2.957031-28.503906-11.140625-38.183594-24.117187-10.546875-14.136719-14.710938-32.179688-11.429688-49.515625 2.945313-15.570313 11.5625-29.363281 24.273438-38.84375 7.605469-5.667969 16.191406-9.484375 25.214844-11.3125 15.324218 3.054687 28.800781 11.539062 38.203125 24.15625 10.546875 14.128906 14.710937 32.179687 11.429687 49.515625zm0 0" fill="#edc472"/><path d="m477.464844 355.988281-15.75 3.964844c-.535156-.460937-48.761719-33.300781-49.347656-33.699219-3.441407-2.347656-8.121094-1.464844-10.46875 1.980469-2.339844 3.433594-1.457032 8.121094 1.988281 10.457031 0 .003906 38.347656 26.15625 38.355469 26.164063l-138.328126 34.820312c-7.164062-14.335937 8.722657 3.027344-63.539062-69.234375-6.855469-6.855468-15.972656-10.628906-25.667969-10.628906h-42c.496094-.226562 87.777344-39.652344 88.253907-39.914062 20.566406-11.671876 45.796874-9.378907 63.835937 4.847656.222656.191406 53.960937 36.816406 54.203125 36.980468 3.433594 2.339844 8.121094 1.457032 10.460938-1.976562 2.339843-3.441406 1.457031-8.121094-1.976563-10.457031l-53.574219-36.53125c-9.929687-7.769531-21.785156-12.808594-34.199218-14.636719v-12.054688c43.003906 12.460938 89.210937 9.792969 123.699218-17.035156 8.960938-6.980468 7.8125-19.605468-2.832031-25.144531-47.175781-24.511719-89.953125-16.769531-120.867187 12.015625v-24.335938c48.609374-3.457031 86.734374-42.832031 88.800781-91.238281.175781-4.15625-3.046875-7.664062-7.199219-7.84375-4.148438-.191406-7.667969 3.046875-7.84375 7.203125-1.832031 42.933594-37.277344 77.066406-80.496094 77.066406-44.925781 0-80.523437-36.589843-80.523437-80.570312 0-69.496094 83.242187-106.839844 135.015625-59.308594 10.554687 9.6875 18.339844 22.003906 22.519531 35.613282 1.222656 3.976562 5.433594 6.210937 9.40625 4.988281 3.976563-1.21875 6.210937-5.429688 4.988281-9.40625-4.960937-16.167969-14.207031-30.792969-26.730468-42.289063-61.359376-56.335937-160.253907-12.265625-160.253907 70.402344 0 49.707031 38.058594 90.980469 87.257813 95.253906v66.070313c-10.789063.695312-21.359375 3.804687-30.816406 9.117187-.328126.148438-117.324219 53.019532-117.648438 53.179688h-31.769531c-2.078125-19.011719-18.230469-33.855469-37.792969-33.855469h-28.601562c-20.96875 0-38.023438 17.054687-38.023438 38.023437v86.558594c0 4.15625 3.371094 7.527344 7.527344 7.527344s7.53125-3.371094 7.53125-7.527344v-86.558594c0-12.667968 10.308594-22.96875 22.964844-22.96875h28.601562c11.230469 0 20.617188 8.121094 22.585938 18.800782.613281 3.324218.378906 58.832031.378906 137.734375 0 12.667969-10.308594 22.976562-22.964844 22.976562h-28.601562c-12.65625 0-22.964844-10.308593-22.964844-22.976562v-16.894531c0-4.15625-3.375-7.527344-7.53125-7.527344s-7.527344 3.371094-7.527344 7.527344v16.894531c0 20.96875 17.054688 38.035156 38.023438 38.035156h28.601562c20.96875 0 38.023438-17.066406 38.023438-38.035156v-13.320313c55.4375 9.574219 43.5 6.082032 126.152343 46.519532 13.273438 6.492187 26.320313 19.011718 53.765625 19.011718 14.328125 0 28.664063-3.949218 41.222656-11.855468.511719-.261719 171.945313-87.160157 172.429688-87.46875 8.628906-5.492188 13.78125-14.875 13.78125-25.105469 0-20.425781-19.945312-32.988281-34.535156-29.335938zm-63.832032-138.738281c.082032.050781.160157.089844.230469.132812-13.539062 10.429688-49.777343 31.167969-108.851562 14.535157 26.675781-28.816407 64.640625-37.523438 108.621093-14.667969zm76.777344 180.296875c-.515625.261719-171.898437 87.136719-172.386718 87.449219-20.453126 13.011718-46.824219 12.941406-67.183594-.183594-4.417969-2.84375-8.933594-5.402344-13.421875-7.597656-84.015625-41.101563-72.078125-37.792969-132.769531-48.273438v-94.074218h110.058593c5.671875 0 11.011719 2.210937 15.027344 6.226562l55.28125 55.277344c10.886719 10.890625 3.566406 29.160156-11.515625 29.160156-4.496094 0-8.734375-1.753906-11.925781-4.9375l-49.800781-49.820312c-2.9375-2.941407-7.707032-2.941407-10.648438 0-2.941406 2.941406-2.941406 7.710937 0 10.652343l49.808594 49.820313c17.953125 17.894531 48.898437 8.757812 53.695312-16.222656l176.050782-44.316407c15.261718-1.648437 22.386718 18.386719 9.730468 26.839844zm0 0"/><path d="m280.585938 77.78125c0-7.347656 6.574218-8.894531 12.097656-8.894531 5.378906 0 8.3125 1.515625 10.460937 2.621093 1.28125.660157 2.296875 1.183594 3.441407 1.183594 3.402343 0 5.109374-3.914062 5.109374-6.113281 0-4.285156-5.699218-6.414063-11.171874-7.378906v-8.230469c0-4.160156-3.371094-7.527344-7.527344-7.527344s-7.527344 3.367188-7.527344 7.527344v8.203125c-11.273438 2.816406-16.296875 9.476563-16.296875 19.410156 0 25.414063 32.90625 16.746094 32.90625 35.304688 0 9.488281-7.769531 10.902343-12.398437 10.902343-7.226563 0-10.496094-3.210937-12.878907-5.550781-1.394531-1.375-2.597656-2.550781-4.222656-2.550781-2.800781 0-5.210937 3.355469-5.210937 6.105469 0 4.617187 6.914062 11.082031 18.097656 12.515625h.003906v6.003906c0 4.160156 3.371094 7.527344 7.527344 7.527344s7.527344-3.367188 7.527344-7.527344v-7.480469c8.273437-3.140625 12.96875-10.417969 12.96875-20.746093 0-28.007813-32.90625-20.238282-32.90625-35.304688zm0 0"/><path d="m222.355469 96.28125c0 38.902344 31.605469 70.609375 70.707031 70.609375 55.433594 0 90.8125-62.816406 58.355469-110.449219-38.972657-57.191406-129.0625-29.582031-129.0625 39.839844zm62.667969 54.96875c-27.03125-3.917969-47.609376-27.175781-47.609376-54.96875 0-43.6875 48.042969-70.328125 85.0625-47.199219 6.472657 4.046875 12.125 9.414063 16.503907 15.839844 27.058593 39.707031-6.210938 93.355469-53.957031 86.328125zm0 0"/></svg>