<?xml version="1.0" encoding="iso-8859-1"?>
<!-- Generator: Adobe Illustrator 19.0.0, SVG Export Plug-In . SVG Version: 6.00 Build 0)  -->
<svg version="1.1" id="Capa_1" xmlns="http://www.w3.org/2000/svg" xmlns:xlink="http://www.w3.org/1999/xlink" x="0px" y="0px"
	 viewBox="0 0 480.002 480.002" style="enable-background:new 0 0 480.002 480.002;" xml:space="preserve">
<circle style="fill:#17AFDC;" cx="280.001" cy="200" r="192"/>
<path style="fill:#F4393D;" d="M397.001,136l-69.176,96l34.176,21.224l70-93.728L397.001,136z"/>
<path style="fill:#F7EDD3;" d="M362.001,253.224l-42,26.776l7-46.864l49-67.992V80h-184v248h184v-93.52L362.001,253.224z"/>
<path style="fill:#DBE6FD;" d="M8.001,384h32v48h-32V384z"/>
<path style="fill:#5358A1;" d="M40.001,384v48.208l48,39.792V344L40.001,384z"/>
<g>
	<path style="fill:#FCCC38;" d="M224.001,120h32v32h-32V120z"/>
	<path style="fill:#FCCC38;" d="M224.001,184h32v32h-32V184z"/>
	<path style="fill:#FCCC38;" d="M224.001,248h32v32h-32V248z"/>
	<path style="fill:#FCCC38;" d="M327.825,232l-0.824,1.136l-7,46.864l42-26.776L327.825,232z"/>
</g>
<path d="M91.395,336.754c-2.812-1.314-6.131-0.885-8.516,1.102L37.106,376H8.001c-4.418,0-8,3.582-8,8v48c0,4.418,3.582,8,8,8
	h28.864l46.03,38.16c3.401,2.82,8.444,2.349,11.264-1.052c1.191-1.436,1.842-3.243,1.842-5.108V344
	C96.001,340.896,94.206,338.072,91.395,336.754z M16.001,392h16v32h-16V392z M80.001,454.977l-32-26.527v-40.703l32-26.664V454.977z
	"/>
<path d="M112.001,360h24v16h-24V360z"/>
<path d="M112.001,408h24v16h-24V408z"/>
<path d="M112.001,456h24v16h-24V456z"/>
<path d="M256.001,160h-32c-4.418,0-8-3.582-8-8v-32c0-4.418,3.582-8,8-8h32c4.418,0,8,3.582,8,8v32
	C264.001,156.418,260.419,160,256.001,160z M232.001,144h16v-16h-16V144z"/>
<path d="M256.001,224h-32c-4.418,0-8-3.582-8-8v-32c0-4.418,3.582-8,8-8h32c4.418,0,8,3.582,8,8v32
	C264.001,220.418,260.419,224,256.001,224z M232.001,208h16v-16h-16V208z"/>
<path d="M256.001,288h-32c-4.418,0-8-3.582-8-8v-32c0-4.418,3.582-8,8-8h32c4.418,0,8,3.582,8,8v32
	C264.001,284.418,260.419,288,256.001,288z M232.001,272h16v-16h-16V272z"/>
<path d="M439.888,158.156c-0.37-2.16-1.608-4.074-3.426-5.297l-35-23.5c-3.584-2.404-8.429-1.535-10.953,1.965l-6.508,9.031V80
	c0-4.418-3.582-8-8-8h-184c-4.418,0-8,3.582-8,8v248c0,4.418,3.582,8,8,8h184c4.418,0,8-3.582,8-8v-90.861l54.41-72.85
	C439.722,162.533,440.256,160.316,439.888,158.156z M200.001,320V88h168v74.558l-46.672,64.766l-0.002,0.004l-0.814,1.129
	c-0.746,1.036-1.235,2.234-1.426,3.496l-7,46.863c-0.653,4.371,2.362,8.443,6.733,9.096c1.908,0.285,3.855-0.129,5.482-1.166
	l42-26.777c0.635-0.414,1.207-0.917,1.699-1.494V320H200.001z M346.977,253.312l-16.469,10.5l2.832-18.969L346.977,253.312z
	 M359.985,242.555l-20.664-12.832l59.645-82.766l21.59,14.496L359.985,242.555z"/>
<path d="M280.001,128h64v16h-64V128z"/>
<path d="M280.001,192h40v16h-40V192z"/>
<path d="M280.001,256h16v16h-16V256z"/>
<path d="M280.001,400c-110.457,0-200-89.543-200-200s89.543-200,200-200s200,89.543,200,200
	C479.877,310.405,390.406,399.876,280.001,400z M280.001,16c-101.62,0-184,82.38-184,184s82.38,184,184,184s184-82.38,184-184
	C463.885,98.427,381.573,16.115,280.001,16z"/>
<g>
</g>
<g>
</g>
<g>
</g>
<g>
</g>
<g>
</g>
<g>
</g>
<g>
</g>
<g>
</g>
<g>
</g>
<g>
</g>
<g>
</g>
<g>
</g>
<g>
</g>
<g>
</g>
<g>
</g>
</svg>
