<?xml version="1.0" encoding="UTF-8"?>
<svg width="71px" height="22px" viewBox="0 0 71 22" version="1.1" xmlns="http://www.w3.org/2000/svg" xmlns:xlink="http://www.w3.org/1999/xlink">
    <!-- Generator: Sketch 52.2 (67145) - http://www.bohemiancoding.com/sketch -->
    <title>logo</title>
    <desc>Created with Sketch.</desc>
    <g id="logo" stroke="none" stroke-width="1" fill="none" fill-rule="evenodd">
        <g>
            <path d="M42.4368182,8.46306818 C42.3558519,7.86647429 42.094846,7.39772898 41.6537926,7.05681818 C41.2127393,6.71590739 40.627873,6.54545455 39.8991761,6.54545455 C39.1406496,6.54545455 38.541934,6.71377673 38.1030114,7.05042614 C37.6640887,7.38707555 37.4446307,7.82812227 37.4446307,8.37357955 C37.4446307,8.84659327 37.6449128,9.22585085 38.0454829,9.51136364 C38.4460531,9.79687643 39.0511607,10.0589477 39.8608239,10.2975852 L40.8515909,10.5852273 C42.1342678,10.9517064 43.0824117,11.4225824 43.6960511,11.9978693 C44.3096906,12.5731563 44.6165057,13.352978 44.6165057,14.337358 C44.6165057,15.1512825 44.4183542,15.8480085 44.0220454,16.4275568 C43.6257367,17.0071052 43.0696343,17.4492172 42.3537216,17.7539062 C41.6378089,18.0585953 40.80259,18.2109375 39.8480398,18.2109375 C38.9616717,18.2109375 38.1573474,18.0585953 37.4350426,17.7539062 C36.7127379,17.4492172 36.1321329,17.0028438 35.6932102,16.4147727 C35.2542876,15.8267016 35.0177843,15.1129303 34.9836932,14.2734375 L37.0419318,14.2734375 C37.1186367,14.9339522 37.4094719,15.4517027 37.914446,15.8267045 C38.4194201,16.2017064 39.0980355,16.3892045 39.9503125,16.3892045 C40.7131004,16.3892045 41.3352533,16.2049024 41.8167898,15.8362926 C42.2983263,15.4676828 42.5390909,15.0149175 42.5390909,14.477983 C42.5390909,13.9836623 42.3398741,13.5660528 41.9414347,13.225142 C41.5429952,12.8842312 40.8814251,12.5859388 39.9567045,12.3302557 L38.8189204,12.0042614 C37.6640851,11.6931803 36.7969063,11.2659828 36.2173579,10.7226562 C35.6378096,10.1793297 35.3480398,9.40270391 35.3480398,8.39275568 C35.3480398,7.65979747 35.5440605,7.01846866 35.9361079,6.46875 C36.3281554,5.91903134 36.8704085,5.49183391 37.5628835,5.18714489 C38.2553586,4.88245586 39.0532909,4.73011364 39.9567045,4.73011364 C40.8175043,4.73011364 41.5845421,4.88778251 42.2578409,5.203125 C42.9311397,5.51846749 43.4670008,5.95631822 43.8654403,6.51669034 C44.2638798,7.07706246 44.4758805,7.72584859 44.5014489,8.46306818 L42.4368182,8.46306818 Z M52.4414205,13.8643466 L52.4414205,8.18181818 L54.4549148,8.18181818 L54.4549148,18 L52.524517,18 L52.524517,16.734375 L52.4222443,16.734375 C52.1665612,17.1008541 51.8032836,17.4247145 51.3324006,17.7059659 C50.8615175,17.9872173 50.2851739,18.1278409 49.6033523,18.1278409 C49.1005088,18.1278409 48.6019343,17.9978706 48.1076136,17.7379261 C47.613293,17.4779817 47.2031408,17.0731562 46.8771449,16.5234375 C46.5511489,15.9737188 46.3881534,15.2599476 46.3881534,14.3821023 L46.3881534,8.18181818 L48.4016477,8.18181818 L48.4016477,14.350142 C48.4016477,14.9978726 48.5795579,15.4953818 48.9353835,15.8426847 C49.2912092,16.1899875 49.7418439,16.3636364 50.2873011,16.3636364 C50.8455426,16.3636364 51.3441171,16.1569623 51.7830398,15.743608 C52.2219624,15.3302536 52.4414205,14.7038394 52.4414205,13.8643466 Z M61.5191761,8.0859375 L61.5191761,10.0610795 C61.340198,10.0312499 61.0994333,10.0163352 60.796875,10.0163352 C60.3110771,10.0163352 59.8924023,10.1313909 59.5408381,10.3615057 C59.1892738,10.5916205 58.9176146,10.8867169 58.7258523,11.246804 C58.53409,11.606891 58.4360796,11.9765606 58.4318182,12.3558239 L58.4318182,18 L56.4183239,18 L56.4183239,8.18181818 L58.4318182,8.18181818 L58.4318182,9.71590909 L58.5213068,9.71590909 C58.6150573,9.43465768 58.7823141,9.16619446 59.0230824,8.91051136 C59.2638506,8.65482827 59.5461632,8.44495821 59.8700284,8.28089489 C60.1938937,8.11683157 60.5284074,8.03480114 60.8735795,8.03480114 C61.1590923,8.03480114 61.374289,8.05184642 61.5191761,8.0859375 Z M66.550767,18.1981534 C65.5876941,18.1981534 64.7620631,17.9797607 64.0738494,17.5429688 C63.3856358,17.1061768 62.857232,16.5074612 62.4886222,15.746804 C62.1200124,14.9861468 61.9357102,14.1179026 61.9357102,13.1420455 C61.9357102,12.1576655 62.1125551,11.2830294 62.46625,10.5181108 C62.819945,9.7531922 63.3259768,9.1512806 63.9843608,8.71235795 C64.6427448,8.27343531 65.4300238,8.05397727 66.3462216,8.05397727 C67.6203757,8.05397727 68.6494847,8.45880277 69.4335795,9.26846591 C70.2176744,10.078129 70.6097159,11.3224348 70.6097159,13.0014205 L70.6097159,13.8451705 L63.9300284,13.8451705 C64.036563,14.6633564 64.3252675,15.3089465 64.7961506,15.7819602 C65.2670336,16.254974 65.8732065,16.4914773 66.6146875,16.4914773 C67.1558834,16.4914773 67.6065181,16.3774869 67.9666051,16.1495028 C68.3266921,15.9215187 68.6239193,15.5987237 68.8582955,15.181108 L70.334858,16.1399148 C70.0493452,16.7152017 69.5880572,17.2020577 68.9509801,17.6004972 C68.3139031,17.9989367 67.51384,18.1981534 66.550767,18.1981534 Z M66.3526136,9.74786932 C65.6878376,9.74786932 65.1466498,9.9865033 64.7290341,10.4637784 C64.3114184,10.9410535 64.0493471,11.5653371 63.9428125,12.3366477 L68.7048864,12.3366477 C68.7048864,11.5568143 68.500343,10.9304001 68.09125,10.4573864 C67.682157,9.98437263 67.1026174,9.74786932 66.3526136,9.74786932 Z" id="Sure" fill="#233440"></path>
            <path d="M1,9 C1.55228475,9 2,9.44771525 2,10 L2,14 C2,14.5522847 1.55228475,15 1,15 C0.44771525,15 6.76353751e-17,14.5522847 0,14 L0,10 C-6.76353751e-17,9.44771525 0.44771525,9 1,9 Z M5,3 C5.55228475,3 6,3.44771525 6,4 L6,5 C6,5.55228475 5.55228475,6 5,6 C4.44771525,6 4,5.55228475 4,5 L4,4 C4,3.44771525 4.44771525,3 5,3 Z M5,8 C5.55228475,8 6,8.44771525 6,9 L6,13 C6,13.5522847 5.55228475,14 5,14 C4.44771525,14 4,13.5522847 4,13 L4,9 C4,8.44771525 4.44771525,8 5,8 Z M5,16 C5.55228475,16 6,16.4477153 6,17 L6,18 C6,18.5522847 5.55228475,19 5,19 C4.44771525,19 4,18.5522847 4,18 L4,17 C4,16.4477153 4.44771525,16 5,16 Z M9,12 C9.55228475,12 10,12.4477153 10,13 L10,17 C10,17.5522847 9.55228475,18 9,18 C8.44771525,18 8,17.5522847 8,17 L8,13 C8,12.4477153 8.44771525,12 9,12 Z M9,19 C9.55228475,19 10,19.4477153 10,20 L10,21 C10,21.5522847 9.55228475,22 9,22 C8.44771525,22 8,21.5522847 8,21 L8,20 C8,19.4477153 8.44771525,19 9,19 Z M9,0 C9.55228475,-1.01453063e-16 10,0.44771525 10,1 L10,9 C10,9.55228475 9.55228475,10 9,10 C8.44771525,10 8,9.55228475 8,9 L8,1 C8,0.44771525 8.44771525,1.01453063e-16 9,0 Z M16,11 L19,11 C19.5522847,11 20,11.4477153 20,12 C20,12.5522847 19.5522847,13 19,13 L16,13 C15.4477153,13 15,12.5522847 15,12 C15,11.4477153 15.4477153,11 16,11 Z M23.1563385,6.53687549 L24.8436615,5.46312451 L31.8436615,16.4631245 L30.1563385,17.5368755 L23.1563385,6.53687549 Z" id="Combined-Shape" fill="#3FA6F3"></path>
            <path d="M14,7 L14,13 C14,13.5522847 13.5522847,14 13,14 C12.4477153,14 12,13.5522847 12,13 L12,6 C12,5.44771525 12.4477153,5 13,5 L21,5 C21.5522847,5 22,5.44771525 22,6 C22,6.55228475 21.5522847,7 21,7 L14,7 Z M16,16 L21,16 C21.5522847,16 22,16.4477153 22,17 C22,17.5522847 21.5522847,18 21,18 L16,18 C15.4477153,18 15,17.5522847 15,17 C15,16.4477153 15.4477153,16 16,16 Z M31,5 C31.5522847,5 32,5.44771525 32,6 L32,17 C32,17.5522847 31.5522847,18 31,18 C30.4477153,18 30,17.5522847 30,17 L30,6 C30,5.44771525 30.4477153,5 31,5 Z M24,5 C24.5522847,5 25,5.44771525 25,6 L25,17 C25,17.5522847 24.5522847,18 24,18 C23.4477153,18 23,17.5522847 23,17 L23,6 C23,5.44771525 23.4477153,5 24,5 Z" id="Combined-Shape" fill="#1F8BDC"></path>
        </g>
    </g>
</svg>