<svg xmlns="http://www.w3.org/2000/svg" height="464pt" version="1.1" viewBox="0 0 464 464" width="464pt">
<g id="surface1">
<path d="M 232 0 C 103.871094 0 0 103.871094 0 232 C 0 360.128906 103.871094 464 232 464 C 360.128906 464 464 360.128906 464 232 C 464 103.871094 360.128906 0 232 0 Z M 232 432 C 121.542969 432 32 342.457031 32 232 C 32 121.542969 121.542969 32 232 32 C 342.457031 32 432 121.542969 432 232 C 432 342.457031 342.457031 432 232 432 Z M 232 432 " style=" stroke:none;fill-rule:nonzero;fill:rgb(44.705882%,40%,34.509804%);fill-opacity:1;" />
<path d="M 128 232 C 128 245.253906 117.253906 256 104 256 C 90.746094 256 80 245.253906 80 232 C 80 218.746094 90.746094 208 104 208 C 117.253906 208 128 218.746094 128 232 Z M 128 232 " style=" stroke:none;fill-rule:nonzero;fill:rgb(39.215686%,76.470588%,49.019608%);fill-opacity:1;" />
<path d="M 264 104 C 264 117.253906 253.253906 128 240 128 C 226.746094 128 216 117.253906 216 104 C 216 90.746094 226.746094 80 240 80 C 253.253906 80 264 90.746094 264 104 Z M 264 104 " style=" stroke:none;fill-rule:nonzero;fill:rgb(39.215686%,76.470588%,49.019608%);fill-opacity:1;" />
<path d="M 336 312 C 336 325.253906 325.253906 336 312 336 C 298.746094 336 288 325.253906 288 312 C 288 298.746094 298.746094 288 312 288 C 325.253906 288 336 298.746094 336 312 Z M 336 312 " style=" stroke:none;fill-rule:nonzero;fill:rgb(39.215686%,76.470588%,49.019608%);fill-opacity:1;" />
<path d="M 224 240 C 224 244.417969 220.417969 248 216 248 C 211.582031 248 208 244.417969 208 240 C 208 235.582031 211.582031 232 216 232 C 220.417969 232 224 235.582031 224 240 Z M 224 240 " style=" stroke:none;fill-rule:nonzero;fill:rgb(47.058824%,72.54902%,92.156863%);fill-opacity:1;" />
<path d="M 144 152 C 144 156.417969 140.417969 160 136 160 C 131.582031 160 128 156.417969 128 152 C 128 147.582031 131.582031 144 136 144 C 140.417969 144 144 147.582031 144 152 Z M 144 152 " style=" stroke:none;fill-rule:nonzero;fill:rgb(47.058824%,72.54902%,92.156863%);fill-opacity:1;" />
<path d="M 208 336 C 208 353.671875 193.671875 368 176 368 C 158.328125 368 144 353.671875 144 336 C 144 318.328125 158.328125 304 176 304 C 193.671875 304 208 318.328125 208 336 Z M 208 336 " style=" stroke:none;fill-rule:nonzero;fill:rgb(100%,46.666667%,32.941176%);fill-opacity:1;" />
<path d="M 280 176 C 280 180.417969 276.417969 184 272 184 C 267.582031 184 264 180.417969 264 176 C 264 171.582031 267.582031 168 272 168 C 276.417969 168 280 171.582031 280 176 Z M 280 176 " style=" stroke:none;fill-rule:nonzero;fill:rgb(47.058824%,72.54902%,92.156863%);fill-opacity:1;" />
<path d="M 368 208 C 368 216.835938 360.835938 224 352 224 C 343.164062 224 336 216.835938 336 208 C 336 199.164062 343.164062 192 352 192 C 360.835938 192 368 199.164062 368 208 Z M 368 208 " style=" stroke:none;fill-rule:nonzero;fill:rgb(100%,59.607843%,6.666667%);fill-opacity:1;" />
<path d="M 216 104 C 216.019531 93.859375 222.429688 84.828125 232 81.472656 L 232 32 C 121.542969 32 32 121.542969 32 232 C 32 342.457031 121.542969 432 232 432 L 232 126.527344 C 222.429688 123.171875 216.019531 114.140625 216 104 Z M 168 96 Z M 176 200 Z M 104 304 Z M 104 256 C 90.746094 256 80 245.253906 80 232 C 80 218.746094 90.746094 208 104 208 C 117.253906 208 128 218.746094 128 232 C 128 245.253906 117.253906 256 104 256 Z M 136 160 C 131.582031 160 128 156.417969 128 152 C 128 147.582031 131.582031 144 136 144 C 140.417969 144 144 147.582031 144 152 C 144 156.417969 140.417969 160 136 160 Z M 176 368 C 158.328125 368 144 353.671875 144 336 C 144 318.328125 158.328125 304 176 304 C 193.671875 304 208 318.328125 208 336 C 208 353.671875 193.671875 368 176 368 Z M 216 248 C 211.582031 248 208 244.417969 208 240 C 208 235.582031 211.582031 232 216 232 C 220.417969 232 224 235.582031 224 240 C 224 244.417969 220.417969 248 216 248 Z M 216 248 " style=" stroke:none;fill-rule:nonzero;fill:rgb(92.156863%,89.803922%,91.372549%);fill-opacity:1;" />
<path d="M 232 32 L 232 81.472656 C 234.5625 80.523438 237.269531 80.027344 240 80 C 253.253906 80 264 90.746094 264 104 C 264 117.253906 253.253906 128 240 128 C 237.269531 127.972656 234.5625 127.476562 232 126.527344 L 232 432 C 342.457031 432 432 342.457031 432 232 C 432 121.542969 342.457031 32 232 32 Z M 328 128 Z M 288 232 Z M 256 368 Z M 272 184 C 267.582031 184 264 180.417969 264 176 C 264 171.582031 267.582031 168 272 168 C 276.417969 168 280 171.582031 280 176 C 280 180.417969 276.417969 184 272 184 Z M 312 336 C 298.746094 336 288 325.253906 288 312 C 288 298.746094 298.746094 288 312 288 C 325.253906 288 336 298.746094 336 312 C 336 325.253906 325.253906 336 312 336 Z M 352 224 C 343.164062 224 336 216.835938 336 208 C 336 199.164062 343.164062 192 352 192 C 360.835938 192 368 199.164062 368 208 C 368 216.835938 360.835938 224 352 224 Z M 384 272 Z M 384 272 " style=" stroke:none;fill-rule:nonzero;fill:rgb(96.862745%,96.078431%,96.470588%);fill-opacity:1;" />
<path d="M 216 256 C 207.164062 256 200 248.835938 200 240 C 200 231.164062 207.164062 224 216 224 C 224.835938 224 232 231.164062 232 240 C 232 248.835938 224.835938 256 216 256 Z M 216 240 Z M 216 240 " style=" stroke:none;fill-rule:nonzero;fill:rgb(80.392157%,16.470588%,0%);fill-opacity:1;" />
<path d="M 136 168 C 127.164062 168 120 160.835938 120 152 C 120 143.164062 127.164062 136 136 136 C 144.835938 136 152 143.164062 152 152 C 152 160.835938 144.835938 168 136 168 Z M 136 152 Z M 136 152 " style=" stroke:none;fill-rule:nonzero;fill:rgb(80.392157%,16.470588%,0%);fill-opacity:1;" />
<path d="M 272 192 C 263.164062 192 256 184.835938 256 176 C 256 167.164062 263.164062 160 272 160 C 280.835938 160 288 167.164062 288 176 C 288 184.835938 280.835938 192 272 192 Z M 272 176 Z M 272 176 " style=" stroke:none;fill-rule:nonzero;fill:rgb(80.392157%,16.470588%,0%);fill-opacity:1;" />
<path d="M 176 208 L 168 208 C 163.582031 208 160 204.417969 160 200 C 160 195.582031 163.582031 192 168 192 L 176 192 C 180.417969 192 184 195.582031 184 200 C 184 204.417969 180.417969 208 176 208 Z M 176 208 " style=" stroke:none;fill-rule:nonzero;fill:rgb(30.588235%,56.470588%,11.764706%);fill-opacity:1;" />
<path d="M 264 376 L 256 376 C 251.582031 376 248 372.417969 248 368 C 248 363.582031 251.582031 360 256 360 L 264 360 C 268.417969 360 272 363.582031 272 368 C 272 372.417969 268.417969 376 264 376 Z M 264 376 " style=" stroke:none;fill-rule:nonzero;fill:rgb(30.588235%,56.470588%,11.764706%);fill-opacity:1;" />
<path d="M 328 144 C 323.582031 144 320 140.417969 320 136 L 320 128 C 320 123.582031 323.582031 120 328 120 C 332.417969 120 336 123.582031 336 128 L 336 136 C 336 140.417969 332.417969 144 328 144 Z M 328 144 " style=" stroke:none;fill-rule:nonzero;fill:rgb(30.588235%,56.470588%,11.764706%);fill-opacity:1;" />
<path d="M 288 248 C 283.582031 248 280 244.417969 280 240 L 280 232 C 280 227.582031 283.582031 224 288 224 C 292.417969 224 296 227.582031 296 232 L 296 240 C 296 244.417969 292.417969 248 288 248 Z M 288 248 " style=" stroke:none;fill-rule:nonzero;fill:rgb(30.588235%,56.470588%,11.764706%);fill-opacity:1;" />
<path d="M 104 312 C 99.582031 312 96 308.417969 96 304 L 96 296 C 96 291.582031 99.582031 288 104 288 C 108.417969 288 112 291.582031 112 296 L 112 304 C 112 308.417969 108.417969 312 104 312 Z M 104 312 " style=" stroke:none;fill-rule:nonzero;fill:rgb(30.588235%,56.470588%,11.764706%);fill-opacity:1;" />
<path d="M 168 104 L 160 104 C 155.582031 104 152 100.417969 152 96 C 152 91.582031 155.582031 88 160 88 L 168 88 C 172.417969 88 176 91.582031 176 96 C 176 100.417969 172.417969 104 168 104 Z M 168 104 " style=" stroke:none;fill-rule:nonzero;fill:rgb(30.588235%,56.470588%,11.764706%);fill-opacity:1;" />
<path d="M 384 280 L 376 280 C 371.582031 280 368 276.417969 368 272 C 368 267.582031 371.582031 264 376 264 L 384 264 C 388.417969 264 392 267.582031 392 272 C 392 276.417969 388.417969 280 384 280 Z M 384 280 " style=" stroke:none;fill-rule:nonzero;fill:rgb(30.588235%,56.470588%,11.764706%);fill-opacity:1;" />
</g>
</svg>