<svg height="512pt" viewBox="0 0 512 512" width="512pt" xmlns="http://www.w3.org/2000/svg"><path d="m480.5 504.5h-449c-13.253906 0-24-10.746094-24-24v-449c0-13.253906 10.746094-24 24-24h449c13.253906 0 24 10.746094 24 24v449c0 13.253906-10.746094 24-24 24zm0 0" fill="#58c748"/><path d="m480.5 7.5h-30c13.253906 0 24 10.746094 24 24v449c0 13.253906-10.746094 24-24 24h30c13.253906 0 24-10.746094 24-24v-449c0-13.253906-10.746094-24-24-24zm0 0" fill="#51b842"/><path d="m429.101562 504.5h-397.601562c-13.253906 0-24-10.746094-24-24v-397.601562c232.84375 0 421.601562 188.757812 421.601562 421.601562zm0 0" fill="#e8a774"/><path d="m7.5 82.898438v1.058593c218.84375 15.386719 391.601562 197.785157 391.601562 420.542969h30c0-232.84375-188.757812-421.601562-421.601562-421.601562zm0 0" fill="#d48b53"/><path d="m250.84375 321.476562v79.402344c-30.382812 0-55 24.617188-55 55h-67.640625c1.820313-5.339844 2.808594-11.0625 2.808594-17.019531 0-29.050781-23.539063-52.589844-52.589844-52.589844-5.941406 0-11.648437.988281-16.980469 2.796875v-67.589844c30.378906 0 55-24.617187 55-55h79.402344c0 30.382813 24.617188 55 55 55zm0 0" fill="#58c748"/><g fill="#ebebeb"><path d="m74.445312 283.476562h-26c-2.210937 0-4-1.789062-4-4v-26c0-2.207031 1.789063-4 4-4h26c2.207032 0 4 1.792969 4 4v26c0 2.210938-1.792968 4-4 4zm0 0"/><path d="m263.839844 283.476562h-26c-2.207032 0-4-1.789062-4-4v-26c0-2.207031 1.792968-4 4-4h26c2.210937 0 4 1.792969 4 4v26c0 2.210938-1.789063 4-4 4zm0 0"/><path d="m53.640625 465.789062c-.882813-.078124-1.578125-.761718-1.675781-1.640624-.554688-4.976563-2.195313-20.695313-.878906-22.007813l18.382812-18.386719c1.5625-1.5625 4.09375-1.5625 5.65625 0l18.386719 18.386719c1.5625 1.558594 1.5625 4.09375 0 5.65625l-18.386719 18.382813c-1.308594 1.308593-16.582031.050781-21.484375-.390626zm0 0"/><path d="m263.839844 472.875h-26c-2.207032 0-4-1.789062-4-4v-26c0-2.210938 1.792968-4 4-4h26c2.210937 0 4 1.789062 4 4v26c0 2.210938-1.789063 4-4 4zm0 0"/></g><path d="m182.898438 361.175781c0 14.800781-11.996094 26.796875-26.792969 26.796875-14.800781 0-26.796875-11.996094-26.796875-26.796875 0-14.796875 11.996094-26.792969 26.796875-26.792969 14.796875 0 26.792969 11.996094 26.792969 26.792969zm0 0" fill="#e8a774"/><path d="m480.5 0h-449c-17.367188 0-31.5 14.132812-31.5 31.5v449c0 17.367188 14.132812 31.5 31.5 31.5h449c17.367188 0 31.5-14.132812 31.5-31.5v-332.421875c0-4.144531-3.359375-7.5-7.5-7.5s-7.5 3.355469-7.5 7.5v332.421875c0 9.097656-7.402344 16.5-16.5 16.5h-43.964844c-1.769531-101.605469-39.449218-199.210938-106.558594-275.59375-68.128906-77.542969-161.671874-127.964844-263.40625-141.972656-4.09375-.566406-7.886718 2.300781-8.453124 6.40625-.5625 4.101562 2.304687 7.886718 6.410156 8.453125 98.160156 13.519531 188.429687 62.175781 254.179687 137.015625 64.703125 73.644531 101.0625 167.730468 102.828125 265.691406h-390.035156c-9.097656 0-16.5-7.402344-16.5-16.5v-390.035156c6.074219.109375 12.167969.347656 18.183594.71875 4.148437.261718 7.691406-2.894532 7.945312-7.03125.253906-4.132813-2.894531-7.6875-7.027344-7.941406-6.324218-.386719-12.71875-.636719-19.101562-.746094v-43.964844c0-9.097656 7.402344-16.5 16.5-16.5h449c9.097656 0 16.5 7.402344 16.5 16.5v32.679688c0 4.140624 3.359375 7.5 7.5 7.5s7.5-3.359376 7.5-7.5v-32.679688c0-17.367188-14.132812-31.5-31.5-31.5zm0 0"/><path d="m504.5 88.5c-4.140625 0-7.5 3.359375-7.5 7.5v19.921875c0 4.144531 3.359375 7.5 7.5 7.5s7.5-3.355469 7.5-7.5v-19.921875c0-4.140625-3.359375-7.5-7.5-7.5zm0 0"/><path d="m74.445312 241.976562h-26c-6.339843 0-11.5 5.160157-11.5 11.5v26c0 6.34375 5.160157 11.5 11.5 11.5h5.496094v137.699219l-8.160156 8.160157c-2.679688 2.679687-3.855469 4.996093-1.269531 28.144531.492187 4.398437 4.046875 7.882812 8.457031 8.28125 7.78125.699219 13.160156 1.007812 16.96875 1.007812 7.214844 0 8.816406-1.109375 10.492188-2.785156l8.113281-8.113281h39.335937c.109375.003906.214844.007812.324219.007812h67.640625c.109375 0 .222656-.003906.335938-.007812h30.164062v5.503906c0 6.34375 5.160156 11.5 11.5 11.5h26c6.339844 0 11.5-5.15625 11.5-11.5v-26c0-6.339844-5.160156-11.5-11.5-11.5h-5.5v-30.339844c0-.054687 0-.105468 0-.15625v-79.398437c0-.054688 0-.105469 0-.15625v-30.34375h5.5c6.339844 0 11.5-5.160157 11.5-11.5v-26c0-6.34375-5.160156-11.5-11.5-11.5h-26c-6.339844 0-11.5 5.15625-11.5 11.5v5.5h-30.347656c-.050782 0-.101563 0-.152344 0h-79.402344c-.050781 0-.101562 0-.152344 0h-30.34375v-5.5c0-6.34375-5.160156-11.503907-11.5-11.503907zm-22.5 15h19v9.246094c-.003906.085938-.003906.171875-.003906.257813 0 .085937 0 .171875.003906.257812v9.238281h-19zm136.84375 17.003907c3.421876 28.480469 26.070313 51.128906 54.550782 54.550781v65.292969c-28.480469 3.421875-51.125 26.070312-54.550782 54.546875h-51.027343c.5-3.132813.75-6.308594.75-9.511719 0-33.132813-26.957031-60.089844-60.089844-60.089844-3.1875 0-6.355469.25-9.480469.746094v-50.984375c28.484375-3.417969 51.132813-26.066406 54.550782-54.550781zm-110.367187 119.789062c24.863281 0 45.089844 20.226563 45.089844 45.089844 0 3.21875-.335938 6.398437-1.003907 9.511719h-20.835937c.335937-1.089844.507813-2.234375.507813-3.402344 0-3.074219-1.195313-5.960938-3.367188-8.132812l-18.382812-18.382813c-2.171876-2.175781-5.0625-3.371094-8.132813-3.371094-1.15625 0-2.285156.167969-3.359375.496094v-20.8125c3.109375-.660156 6.28125-.996094 9.484375-.996094zm-19.488281 64.933594c-.640625-6.507813-.859375-10.777344-.851563-12.957031l14.214844-14.214844 13.433594 13.4375-14.28125 14.28125c-2.09375.050781-6.222657-.0625-12.515625-.546875zm201.40625 6.671875h-19v-19h19zm-22.5-34c-6.339844 0-11.5 5.160156-11.5 11.5v5.496094h-22.40625c3.222656-20.195313 19.210937-36.183594 39.40625-39.398438v22.402344zm3.5-174.398438h19v19h-19zm-3.5 34h5.5v22.410157c-20.195313-3.21875-36.1875-19.210938-39.40625-39.40625h22.410156v5.496093c-.003906 6.34375 5.15625 11.5 11.496094 11.5zm-129.492188-16.996093c-3.214844 20.195312-19.210937 36.1875-39.40625 39.40625v-22.410157h5.503906c6.339844 0 11.5-5.15625 11.5-11.5v-5.496093zm0 0"/><path d="m156.105469 395.472656c18.910156 0 34.292969-15.382812 34.292969-34.296875 0-18.910156-15.382813-34.292969-34.292969-34.292969-18.914063 0-34.296875 15.382813-34.296875 34.292969 0 18.910157 15.382812 34.296875 34.296875 34.296875zm0-53.59375c10.636719 0 19.292969 8.65625 19.292969 19.296875s-8.65625 19.296875-19.292969 19.296875c-10.640625 0-19.296875-8.65625-19.296875-19.296875s8.65625-19.296875 19.296875-19.296875zm0 0"/></svg>