<svg height="512pt" viewBox="-55 0 511 512" width="512pt" xmlns="http://www.w3.org/2000/svg"><path d="m301.933594 45.886719v-15.886719c0-11-9-20-20-20h-96.433594c-11 0-20 9-20 20v15.886719c0 11 9 20 20 20h96.433594c11 0 20-9 20-20zm0 0" fill="#fd4a4a" fill-rule="evenodd"/><path d="m390.5 472.800781v-413.601562c0-16.058594-13.140625-29.199219-29.199219-29.199219h-59.367187v15.886719c0 11-9 20-20 20h-162.792969v406.914062c0 16.058594 13.140625 29.199219 29.195313 29.199219h212.964843c16.058594 0 29.199219-13.140625 29.199219-29.199219zm0 0" fill="#f0f0f0"/><path d="m148.496094 151.292969c0-8.785157 4.476562-16.386719 11-20.09375-2.703125-1.535157-5.761719-2.40625-9-2.40625-11.042969 0-20 10.074219-20 22.5s8.957031 22.5 20 22.5c3.238281 0 6.296875-.871094 9-2.40625-6.523438-3.707031-11-11.308594-11-20.09375zm0 0" fill="#fff"/><path d="m198.5 121.292969c0-8.785157 4.476562-16.386719 11-20.09375-2.707031-1.535157-5.761719-2.40625-9-2.40625-11.046875 0-20 10.074219-20 22.5s8.953125 22.5 20 22.5c3.238281 0 6.292969-.871094 9-2.410157-6.523438-3.707031-11-11.308593-11-20.089843zm0 0" fill="#fff"/><path d="m248.5 151.292969c0-8.785157 4.476562-16.386719 11-20.09375-2.707031-1.535157-5.761719-2.40625-9-2.40625-11.046875 0-20 10.074219-20 22.5s8.953125 22.5 20 22.5c3.238281 0 6.292969-.871094 9-2.40625-6.523438-3.707031-11-11.308594-11-20.09375zm0 0" fill="#fff"/><g fill="#ffceac"><path d="m170.496094 151.292969c0-8.785157-4.476563-16.386719-11-20.09375-6.523438 3.707031-11 11.308593-11 20.09375 0 8.785156 4.476562 16.386719 11 20.089843 6.523437-3.703124 11-11.304687 11-20.089843zm0 0"/><path d="m220.5 121.292969c0-8.785157-4.476562-16.386719-11-20.09375-6.523438 3.707031-11 11.308593-11 20.09375 0 8.78125 4.476562 16.382812 11 20.089843 6.523438-3.707031 11-11.308593 11-20.089843zm0 0"/><path d="m270.5 151.292969c0-8.785157-4.476562-16.386719-11-20.09375-6.523438 3.707031-11 11.308593-11 20.09375 0 8.785156 4.476562 16.386719 11 20.089843 6.523438-3.703124 11-11.304687 11-20.089843zm0 0"/><path d="m235.5 192.230469c0-20.707031-15.671875-37.5-35-37.5-19.332031 0-35 16.792969-35 37.5 0 20.710937 15.667969 37.5 35 37.5 19.328125 0 35-16.789063 35-37.5zm0 0" fill-rule="evenodd"/></g><path d="m361.300781 20h-51.089843c-4.128907-11.640625-15.242188-20-28.277344-20h-162.867188c-13.035156 0-24.152344 8.359375-28.28125 20h-51.085937c-21.617188 0-39.199219 17.585938-39.199219 39.199219v413.601562c0 21.613281 17.582031 39.199219 39.199219 39.199219h321.601562c21.613281 0 39.199219-17.585938 39.199219-39.199219v-413.601562c0-21.617188-17.585938-39.199219-39.199219-39.199219zm-242.234375 0h162.863282c5.515624 0 10 4.484375 10 10v15.886719c0 5.515625-4.484376 10-10 10h-162.863282c-5.515625 0-10-4.484375-10-10v-15.886719c0-5.515625 4.484375-10 10-10zm261.433594 452.800781c0 10.585938-8.613281 19.199219-19.199219 19.199219h-321.601562c-10.585938 0-19.199219-8.613281-19.199219-19.199219v-413.601562c0-10.585938 8.613281-19.199219 19.199219-19.199219h49.367187v5.886719c0 16.542969 13.457032 30 30 30h162.863282c16.542968 0 30-13.457031 30-30v-5.886719h49.367187c10.589844 0 19.199219 8.613281 19.199219 19.199219v413.601562zm0 0"/><path d="m124.621094 401.832031-24.558594 25.160157-4.683594-4.683594c-3.90625-3.90625-10.234375-3.90625-14.140625 0-3.90625 3.902344-3.90625 10.234375 0 14.140625l11.839844 11.839843c1.875 1.875 4.417969 2.929688 7.070313 2.929688h.058593c2.675781-.015625 5.230469-1.101562 7.097657-3.015625l31.628906-32.402344c3.855468-3.953125 3.78125-10.28125-.171875-14.140625s-10.285157-3.78125-14.140625.171875zm0 0"/><path d="m200.5 239.730469c24.8125 0 45-21.308594 45-47.5 0-3.097657-.292969-6.125-.832031-9.058594 1.886719.40625 3.835937.621094 5.832031.621094 16.542969 0 30-14.578125 30-32.5s-13.457031-32.5-30-32.5c-7.964844 0-15.210938 3.386719-20.589844 8.894531.382813-2.066406.589844-4.207031.589844-6.394531 0-17.921875-13.460938-32.5-30-32.5-16.542969 0-30 14.578125-30 32.5 0 2.1875.203125 4.324219.585938 6.394531-5.378907-5.507812-12.621094-8.894531-20.589844-8.894531-16.539063 0-30 14.578125-30 32.5s13.460937 32.5 30 32.5c1.996094 0 3.945312-.214844 5.835937-.621094-.539062 2.933594-.832031 5.960937-.832031 9.058594 0 26.195312 20.1875 47.5 45 47.5zm0-20c-13.785156 0-25-12.335938-25-27.5 0-15.160157 11.214844-27.5 25-27.5s25 12.339843 25 27.5c0 15.164062-11.214844 27.5-25 27.5zm50-80.9375c5.421875 0 10 5.722656 10 12.5 0 6.777343-4.578125 12.5-10 12.5s-10-5.722657-10-12.5c0-6.777344 4.578125-12.5 10-12.5zm-29.414062 6.105469c-.289063 1.570312-.476563 3.179687-.546876 4.820312-1.050781-.554688-2.125-1.0625-3.21875-1.53125 1.335938-.984375 2.59375-2.089844 3.765626-3.289062zm-20.585938-36.105469c5.417969 0 10 5.722656 10 12.5 0 6.773437-4.582031 12.5-10 12.5-5.421875 0-10-5.726563-10-12.5 0-6.777344 4.578125-12.5 10-12.5zm-16.820312 39.394531c-1.09375.46875-2.167969.980469-3.21875 1.53125-.074219-1.640625-.257813-3.25-.550782-4.820312 1.171875 1.199218 2.429688 2.304687 3.769532 3.289062zm-43.183594 3.105469c0-6.777344 4.582031-12.5 10-12.5 5.421875 0 10 5.722656 10 12.5 0 6.777343-4.578125 12.5-10 12.5-5.417969 0-10-5.722657-10-12.5zm0 0"/><path d="m312.6875 349.082031h-145.847656c-5.523438 0-10 4.476563-10 10 0 5.523438 4.476562 10 10 10h145.851562c5.519532 0 10-4.476562 10-10-.003906-5.523437-4.480468-10-10.003906-10zm0 0"/><path d="m124.621094 341.832031-24.558594 25.15625-4.683594-4.683593c-3.90625-3.902344-10.234375-3.902344-14.140625 0-3.90625 3.90625-3.90625 10.238281 0 14.144531l11.839844 11.839843c1.875 1.875 4.417969 2.929688 7.070313 2.929688.019531 0 .039062 0 .058593-.003906 2.675781-.015625 5.230469-1.101563 7.097657-3.011719l31.628906-32.402344c3.855468-3.953125 3.78125-10.285156-.171875-14.140625-3.953125-3.859375-10.285157-3.78125-14.140625.171875zm0 0"/><path d="m124.621094 281.828125-24.558594 25.160156-4.683594-4.683593c-3.90625-3.90625-10.234375-3.90625-14.140625 0s-3.90625 10.238281 0 14.140624l11.839844 11.839844c1.875 1.878906 4.417969 2.929688 7.070313 2.929688h.058593c2.675781-.015625 5.230469-1.101563 7.097657-3.015625l31.628906-32.398438c3.855468-3.953125 3.78125-10.285156-.171875-14.144531s-10.285157-3.78125-14.140625.171875zm0 0"/><path d="m232.792969 409.082031h-65.953125c-5.523438 0-10 4.476563-10 10 0 5.523438 4.476562 10 10 10h65.953125c5.519531 0 10-4.476562 10-10 0-5.523437-4.480469-10-10-10zm0 0"/><path d="m262.839844 409.082031h-.324219c-5.523437 0-10 4.476563-10 10 0 5.523438 4.476563 10 10 10h.324219c5.519531 0 10-4.476562 10-10 0-5.523437-4.480469-10-10-10zm0 0"/><path d="m312.6875 289.078125h-.324219c-5.519531 0-10 4.476563-10 10s4.480469 10 10 10h.324219c5.523438 0 10-4.476563 10-10s-4.476562-10-10-10zm0 0"/><path d="m156.839844 299.078125c0 5.523437 4.476562 10 10 10h115.800781c5.523437 0 10-4.476563 10-10s-4.476563-10-10-10h-115.800781c-5.523438 0-10 4.476563-10 10zm0 0"/></svg>