<svg xmlns="http://www.w3.org/2000/svg" height="512pt" version="1.1" viewBox="0 0 512 512" width="512pt">
<g id="surface1">
<path d="M 119.734375 368.21875 C 119.734375 292.960938 256 135.765625 256 135.765625 C 256 135.765625 392.265625 292.960938 392.265625 368.21875 C 392.265625 443.476562 331.257812 504.484375 256 504.484375 C 180.742188 504.484375 119.734375 443.476562 119.734375 368.21875 Z M 119.734375 368.21875 " style=" stroke:none;fill-rule:nonzero;fill:rgb(65.882353%,87.843137%,34.901961%);fill-opacity:1;" />
<path d="M 288.0625 488.453125 C 212.804688 488.453125 151.796875 427.445312 151.796875 352.1875 C 151.796875 296.359375 226.789062 195.4375 265.507812 147.050781 C 259.554688 139.863281 256 135.765625 256 135.765625 C 256 135.765625 119.734375 292.960938 119.734375 368.21875 C 119.734375 443.476562 180.742188 504.484375 256 504.484375 C 284.308594 504.484375 310.597656 495.851562 332.382812 481.078125 C 318.488281 485.855469 303.578125 488.453125 288.0625 488.453125 Z M 288.0625 488.453125 " style=" stroke:none;fill-rule:nonzero;fill:rgb(57.254902%,85.098039%,18.823529%);fill-opacity:1;" />
<path d="M 504.484375 127.75 C 504.484375 145.457031 490.128906 159.8125 472.421875 159.8125 C 454.714844 159.8125 440.359375 145.457031 440.359375 127.75 C 440.359375 110.042969 454.714844 95.6875 472.421875 95.6875 C 490.128906 95.6875 504.484375 110.042969 504.484375 127.75 Z M 504.484375 127.75 " style=" stroke:none;fill-rule:nonzero;fill:rgb(51.764706%,87.843137%,92.941176%);fill-opacity:1;" />
<path d="M 71.640625 39.578125 C 71.640625 57.285156 57.285156 71.640625 39.578125 71.640625 C 21.871094 71.640625 7.515625 57.285156 7.515625 39.578125 C 7.515625 21.871094 21.871094 7.515625 39.578125 7.515625 C 57.285156 7.515625 71.640625 21.871094 71.640625 39.578125 Z M 71.640625 39.578125 " style=" stroke:none;fill-rule:nonzero;fill:rgb(99.215686%,70.980392%,43.921569%);fill-opacity:1;" />
<path d="M 71.640625 320.125 C 71.640625 337.832031 57.285156 352.1875 39.578125 352.1875 C 21.871094 352.1875 7.515625 337.832031 7.515625 320.125 C 7.515625 302.417969 21.871094 288.0625 39.578125 288.0625 C 57.285156 288.0625 71.640625 302.417969 71.640625 320.125 Z M 71.640625 320.125 " style=" stroke:none;fill-rule:nonzero;fill:rgb(100%,87.45098%,34.509804%);fill-opacity:1;" />
<path d="M 256 31.0625 L 320.125 31.0625 C 324.277344 31.0625 327.640625 27.695312 327.640625 23.546875 C 327.640625 19.394531 324.277344 16.03125 320.125 16.03125 L 256 16.03125 C 251.847656 16.03125 248.484375 19.394531 248.484375 23.546875 C 248.484375 27.695312 251.847656 31.0625 256 31.0625 Z M 256 31.0625 " style=" stroke:none;fill-rule:nonzero;fill:rgb(0%,0%,0%);fill-opacity:1;" />
<path d="M 344.171875 31.0625 L 376.234375 31.0625 C 380.386719 31.0625 383.75 27.695312 383.75 23.546875 C 383.75 19.394531 380.386719 16.03125 376.234375 16.03125 L 344.171875 16.03125 C 340.019531 16.03125 336.65625 19.394531 336.65625 23.546875 C 336.65625 27.695312 340.019531 31.0625 344.171875 31.0625 Z M 344.171875 31.0625 " style=" stroke:none;fill-rule:nonzero;fill:rgb(0%,0%,0%);fill-opacity:1;" />
<path d="M 256 63.125 L 288.0625 63.125 C 292.214844 63.125 295.578125 59.757812 295.578125 55.609375 C 295.578125 51.457031 292.214844 48.09375 288.0625 48.09375 L 256 48.09375 C 251.847656 48.09375 248.484375 51.457031 248.484375 55.609375 C 248.484375 59.757812 251.847656 63.125 256 63.125 Z M 256 63.125 " style=" stroke:none;fill-rule:nonzero;fill:rgb(0%,0%,0%);fill-opacity:1;" />
<path d="M 376.234375 48.09375 L 320.125 48.09375 C 315.972656 48.09375 312.609375 51.457031 312.609375 55.609375 C 312.609375 59.757812 315.972656 63.125 320.125 63.125 L 376.234375 63.125 C 380.386719 63.125 383.75 59.757812 383.75 55.609375 C 383.75 51.457031 380.386719 48.09375 376.234375 48.09375 Z M 376.234375 48.09375 " style=" stroke:none;fill-rule:nonzero;fill:rgb(0%,0%,0%);fill-opacity:1;" />
<path d="M 256 95.1875 L 376.234375 95.1875 C 380.386719 95.1875 383.75 91.820312 383.75 87.671875 C 383.75 83.519531 380.386719 80.15625 376.234375 80.15625 L 256 80.15625 C 251.847656 80.15625 248.484375 83.519531 248.484375 87.671875 C 248.484375 91.820312 251.847656 95.1875 256 95.1875 Z M 256 95.1875 " style=" stroke:none;fill-rule:nonzero;fill:rgb(0%,0%,0%);fill-opacity:1;" />
<path d="M 472.421875 88.171875 C 453.167969 88.171875 437.089844 101.996094 433.570312 120.234375 L 360.203125 120.234375 C 356.96875 120.234375 354.097656 122.304688 353.074219 125.371094 L 324.484375 211.140625 C 293.546875 167.796875 264.265625 133.828125 261.679688 130.84375 C 258.726562 127.4375 253.273438 127.4375 250.320312 130.84375 C 248.976562 132.394531 240.398438 142.34375 228.132812 157.617188 L 182.878906 36.9375 C 181.78125 34.003906 178.976562 32.0625 175.84375 32.0625 L 78.429688 32.0625 C 74.910156 13.820312 58.832031 0 39.578125 0 C 17.753906 0 0 17.753906 0 39.578125 C 0 61.398438 17.753906 79.15625 39.578125 79.15625 C 58.832031 79.15625 74.910156 65.332031 78.429688 47.09375 L 170.636719 47.09375 L 216.902344 170.464844 C 217.011719 170.761719 217.152344 171.035156 217.296875 171.3125 C 205.429688 186.511719 191.621094 204.933594 177.972656 224.75 C 177.296875 224.550781 176.585938 224.4375 175.84375 224.4375 L 79.65625 224.4375 C 77.230469 224.4375 74.953125 225.613281 73.542969 227.585938 L 35.566406 280.75 C 15.621094 282.765625 0 299.65625 0 320.125 C 0 341.949219 17.753906 359.703125 39.578125 359.703125 C 61.398438 359.703125 79.15625 341.949219 79.15625 320.125 C 79.15625 302.863281 68.042969 288.15625 52.601562 282.757812 L 83.523438 239.46875 L 168.054688 239.46875 C 138.445312 284.398438 112.21875 333.882812 112.21875 368.21875 C 112.21875 447.5 176.71875 512 256 512 C 303.351562 512 347.667969 488.679688 374.539062 449.613281 C 376.890625 446.195312 376.027344 441.515625 372.605469 439.164062 C 369.1875 436.8125 364.507812 437.675781 362.15625 441.097656 C 339.515625 474.007812 303.058594 494.4375 263.515625 496.746094 L 263.515625 445.167969 L 363.351562 399.089844 C 367.121094 397.347656 368.765625 392.886719 367.027344 389.117188 C 365.289062 385.347656 360.824219 383.703125 357.054688 385.441406 L 263.515625 428.613281 L 263.515625 364.847656 L 339.515625 326.847656 C 343.226562 324.992188 344.734375 320.476562 342.878906 316.765625 C 341.023438 313.050781 336.511719 311.546875 332.796875 313.402344 L 263.515625 348.042969 L 263.515625 292.707031 L 307.453125 270.738281 C 311.164062 268.882812 312.671875 264.367188 310.816406 260.65625 C 308.960938 256.945312 304.449219 255.4375 300.730469 257.296875 L 263.515625 275.902344 L 263.515625 231.953125 C 263.515625 227.804688 260.152344 224.4375 256 224.4375 C 251.847656 224.4375 248.484375 227.804688 248.484375 231.953125 L 248.484375 275.902344 L 211.265625 257.292969 C 207.550781 255.4375 203.039062 256.941406 201.183594 260.65625 C 199.328125 264.367188 200.832031 268.882812 204.542969 270.738281 L 248.484375 292.707031 L 248.484375 348.042969 L 179.203125 313.402344 C 175.488281 311.546875 170.976562 313.050781 169.121094 316.765625 C 167.265625 320.476562 168.769531 324.988281 172.480469 326.84375 L 248.484375 364.847656 L 248.484375 428.613281 L 154.945312 385.441406 C 151.179688 383.703125 146.710938 385.347656 144.972656 389.117188 C 143.234375 392.886719 144.878906 397.351562 148.648438 399.089844 L 248.484375 445.167969 L 248.484375 496.746094 C 180.976562 492.839844 127.25 436.691406 127.25 368.21875 C 127.25 305.179688 230.414062 177.96875 256 147.394531 C 281.589844 177.964844 384.75 305.15625 384.75 368.21875 C 384.75 383.867188 381.976562 399.15625 376.503906 413.660156 C 375.039062 417.542969 377 421.878906 380.882812 423.347656 C 384.769531 424.8125 389.101562 422.851562 390.566406 418.96875 C 396.679688 402.761719 399.78125 385.6875 399.78125 368.21875 C 399.78125 330.53125 368.1875 274.597656 335.207031 226.464844 C 335.226562 226.414062 335.253906 226.367188 335.269531 226.3125 L 365.617188 135.265625 L 433.570312 135.265625 C 437.089844 153.503906 453.167969 167.328125 472.421875 167.328125 C 494.246094 167.328125 512 149.570312 512 127.75 C 512 105.925781 494.246094 88.171875 472.421875 88.171875 Z M 39.578125 64.125 C 26.039062 64.125 15.03125 53.113281 15.03125 39.578125 C 15.03125 26.042969 26.039062 15.03125 39.578125 15.03125 C 53.113281 15.03125 64.125 26.042969 64.125 39.578125 C 64.125 53.113281 53.113281 64.125 39.578125 64.125 Z M 64.125 320.125 C 64.125 333.660156 53.113281 344.671875 39.578125 344.671875 C 26.039062 344.671875 15.03125 333.660156 15.03125 320.125 C 15.03125 306.59375 26.035156 295.582031 39.566406 295.578125 C 39.570312 295.578125 39.570312 295.578125 39.570312 295.578125 C 39.574219 295.578125 39.578125 295.578125 39.578125 295.578125 C 53.113281 295.578125 64.125 306.589844 64.125 320.125 Z M 472.421875 152.296875 C 458.886719 152.296875 447.875 141.285156 447.875 127.75 C 447.875 114.214844 458.886719 103.203125 472.421875 103.203125 C 485.960938 103.203125 496.96875 114.214844 496.96875 127.75 C 496.96875 141.285156 485.960938 152.296875 472.421875 152.296875 Z M 472.421875 152.296875 " style=" stroke:none;fill-rule:nonzero;fill:rgb(0%,0%,0%);fill-opacity:1;" />
</g>
</svg>