<?xml version="1.0" encoding="utf-8"?>
<!-- Generator: Adobe Illustrator 21.0.0, SVG Export Plug-In . SVG Version: 6.00 Build 0)  -->
<svg xmlns="http://www.w3.org/2000/svg" xmlns:xlink="http://www.w3.org/1999/xlink" version="1.1" id="Layer_1" x="0px" y="0px" viewBox="0 0 256 256" style="enable-background:new 0 0 256 256;" xml:space="preserve" width="512" height="512">
<style type="text/css">
	.st0{fill:#F9D97D;}
	.st1{fill:#FFCD29;}
	.st2{fill:#F45D64;}
	.st3{fill:#60BAE2;}
	.st4{fill:#6DCC6D;}
	.st5{fill:#231F20;}
</style>
<g id="Layer_7">
	<path class="st0" d="M113.1,61.7L76.9,10.4c-1.3-1.9-4-2.4-5.9-1c-0.4,0.3-0.7,0.6-1,1L33.8,61.7c-23.1,32.8-0.9,78,39.7,78   S136.2,94.4,113.1,61.7z"/>
	<path class="st1" d="M161.8,157c-1,0-1.9-0.5-2.4-1.4L137.1,117c-0.5-0.9-0.5-1.9,0-2.8l20.4-35.4l-29.8-42.2   c-2.2-3.1-6.5-3.8-9.6-1.7c-0.6,0.5-1.2,1-1.7,1.7l-10.5,14.9l7.2,10.2c23.1,32.8,0.9,78-39.7,78c-8.3,0.1-16.5-2-23.8-6   c-23.8,51.5,11.8,113.7,72.4,113.7c51.7,0,85.2-45.2,79.2-90.4L161.8,157z"/>
	<path class="st2" d="M143.9,4.3H142V2.5c0-1.4-1.1-2.5-2.5-2.5S137,1.1,137,2.5v1.8h-1.8c-1.4,0-2.5,1.1-2.5,2.5   c0,1.4,1.1,2.5,2.5,2.5h1.8v1.8c0,1.4,1.1,2.5,2.5,2.5s2.5-1.1,2.5-2.5V9.3h1.8c1.4,0,2.5-1.1,2.5-2.5S145.2,4.3,143.9,4.3z"/>
	<path class="st1" d="M155.9,30.5c0-0.2-0.1-0.3-0.1-0.5c-0.1-0.1-0.1-0.3-0.2-0.4c-0.1-0.1-0.2-0.3-0.3-0.4c-1-0.9-2.5-0.9-3.5,0   c-0.1,0.1-0.2,0.2-0.3,0.4c-0.2,0.3-0.3,0.6-0.4,0.9c-0.1,0.3-0.1,0.7,0,1c0,0.2,0.1,0.3,0.1,0.5c0.1,0.2,0.1,0.3,0.2,0.4   c0.1,0.1,0.2,0.3,0.3,0.4c1,1,2.5,1,3.5,0c0,0,0,0,0,0c0.1-0.1,0.2-0.2,0.3-0.4c0.1-0.1,0.2-0.3,0.2-0.4c0.1-0.1,0.1-0.3,0.1-0.5   C156,31.1,156,30.8,155.9,30.5z"/>
	<path class="st3" d="M64.4,253c0-0.2-0.1-0.3-0.1-0.5c-0.1-0.1-0.1-0.3-0.2-0.4c-0.1-0.1-0.2-0.3-0.3-0.4c-1-0.9-2.5-0.9-3.5,0   c-0.1,0.1-0.2,0.2-0.3,0.4c-0.2,0.3-0.3,0.6-0.4,0.9c-0.1,0.3-0.1,0.7,0,1c0,0.2,0.1,0.3,0.1,0.5c0.1,0.2,0.1,0.3,0.2,0.4   c0.1,0.1,0.2,0.3,0.3,0.4c1,1,2.5,1,3.5,0c0,0,0,0,0,0c0.1-0.1,0.2-0.2,0.3-0.4c0.1-0.1,0.2-0.3,0.2-0.4c0.1-0.1,0.1-0.3,0.1-0.5   C64.5,253.7,64.5,253.3,64.4,253z"/>
	<path class="st4" d="M48.4,236.6c-4.1-0.8-7.2-4-8-8c0-0.1-0.1-0.2-0.2-0.2c-0.1,0-0.1,0.1-0.2,0.2c-0.8,4.1-4,7.2-8,8   c-0.1,0-0.2,0.1-0.2,0.2c0,0.1,0.1,0.1,0.2,0.2c4.1,0.8,7.2,4,8,8c0,0.1,0.1,0.2,0.2,0.2c0.1,0,0.1-0.1,0.2-0.2c0.8-4.1,4-7.2,8-8   c0.1,0,0.2-0.1,0.2-0.2C48.6,236.7,48.5,236.6,48.4,236.6z"/>
	<path class="st5" d="M73.5,142.2c-19.6,0-36.7-10.3-45.6-27.5c-9-17.4-7.5-38.4,3.9-54.4L68,8.9c2.1-3,6.3-3.8,9.4-1.6   c0.6,0.4,1.2,1,1.6,1.6l36.2,51.3c11.4,16,12.9,37,3.9,54.4C110.2,131.9,93.1,142.2,73.5,142.2z M73.5,11.1c-0.6,0-1.1,0.3-1.4,0.7   L35.8,63.1c-10.3,14.4-11.7,33.4-3.6,49.2c8,15.5,23.4,24.8,41.2,24.8s33.1-9.3,41.2-24.8c8.1-15.8,6.8-34.8-3.6-49.2l0,0   L74.9,11.8C74.5,11.3,74,11.1,73.5,11.1L73.5,11.1z"/>
	<path class="st4" d="M231.2,114.1l-22.3-38.6c-0.5-0.9-1.4-1.4-2.4-1.4h-44.6c-1,0-1.9,0.5-2.4,1.4l-22.3,38.6   c-0.5,0.9-0.5,1.9,0,2.8l22.3,38.6c0.5,0.9,1.4,1.4,2.4,1.4h44.6c1,0,1.9-0.5,2.4-1.4l22.3-38.6C231.7,116.1,231.7,115,231.2,114.1   z"/>
	<path class="st5" d="M206.4,159.5h-44.6c-1.9,0-3.6-1-4.6-2.7l-22.3-38.6c-0.9-1.6-0.9-3.7,0-5.3l22.3-38.6c1-1.6,2.7-2.7,4.6-2.7   h44.6c1.9,0,3.6,1,4.6,2.7l22.3,38.6l0,0c0.9,1.6,0.9,3.7,0,5.3L211,156.8C210.1,158.5,208.3,159.5,206.4,159.5z M161.8,76.6   c-0.1,0-0.2,0.1-0.3,0.2l-22.3,38.6c-0.1,0.1-0.1,0.2,0,0.3l22.3,38.6c0.1,0.1,0.2,0.2,0.3,0.2h44.6c0.1,0,0.2-0.1,0.3-0.2   l22.3-38.6c0.1-0.1,0.1-0.2,0-0.3l0,0l-22.3-38.6c-0.1-0.1-0.2-0.2-0.3-0.2L161.8,76.6z"/>
	<path class="st5" d="M185.7,128.6H177c-1.4,0-2.5-1.1-2.5-2.5v-21c0-1.4,1.1-2.5,2.5-2.5h8.7c4.3,0,7.8,3.5,7.8,7.7   c0,2-0.7,3.8-2.1,5.3c2.9,3.1,2.7,8.1-0.4,11C189.5,127.8,187.6,128.6,185.7,128.6L185.7,128.6z M179.5,123.6h6.2   c1.5,0,2.8-1.2,2.8-2.8s-1.2-2.8-2.8-2.8h-6.2V123.6z M179.5,113h6.2c1.5,0,2.8-1.2,2.8-2.8c0-1.5-1.2-2.8-2.8-2.8h-6.2V113z"/>
	<path class="st5" d="M168.3,128.6h-3.4c-7.2-0.1-13-5.9-12.9-13.1c0.1-7.1,5.8-12.8,12.9-12.9h3.4c1.4,0,2.5,1.1,2.5,2.5   s-1.1,2.5-2.5,2.5h-3.4c-4.4,0-8,3.7-7.9,8.1c0,4.4,3.6,7.9,7.9,7.9h3.4c1.4,0,2.5,1.1,2.5,2.5S169.7,128.6,168.3,128.6   L168.3,128.6z"/>
	<path class="st5" d="M203.4,128.6h-3.4c-1.4,0-2.5-1.1-2.5-2.5v-21c0-1.4,1.1-2.5,2.5-2.5h3.4c7.2-0.1,13.1,5.7,13.1,12.9   c0.1,7.2-5.7,13.1-12.9,13.1C203.5,128.6,203.4,128.6,203.4,128.6L203.4,128.6z M202.4,123.6h0.9c4.4,0,8.1-3.5,8.1-7.9   s-3.5-8.1-7.9-8.1c-0.1,0-0.1,0-0.2,0h-0.9V123.6z"/>
	<path class="st5" d="M122.1,249.9c-28.8,0-54-13.6-69.2-37.4c-15.4-23.9-17.5-54.1-5.5-79.8c0.6-1.3,2.1-1.8,3.3-1.2   c0.1,0,0.1,0.1,0.2,0.1c6.9,3.8,14.7,5.7,22.6,5.6c17.7,0,33.1-9.3,41.2-24.8c8.1-15.8,6.8-34.8-3.6-49.2L103.9,53   c-0.6-0.9-0.6-2,0-2.9l10.5-14.9c3-4.2,8.8-5.2,13.1-2.3c0.9,0.6,1.6,1.4,2.3,2.3l29.8,42.2c0.6,0.8,0.6,1.8,0.1,2.7l-20.4,35.4   c-0.1,0.1-0.1,0.2,0,0.3l22.3,38.6c0.1,0.1,0.2,0.2,0.3,0.2h39.5c1.3,0,2.3,0.9,2.5,2.2c3.1,23.8-4.1,47.7-19.9,65.8   C168.3,240.2,146.4,249.9,122.1,249.9z M50.9,137.1c-10.1,23.8-7.7,51,6.2,72.7c14.3,22.3,38,35.1,65,35.1c22.8,0,43.4-9.2,58-25.8   c14.4-16.4,21.2-38,19-59.6h-37.3c-1.9,0-3.6-1-4.6-2.7l-22.3-38.6c-0.9-1.6-0.9-3.7,0-5.3l19.6-34L125.7,38   c-1.4-2-4.1-2.4-6.1-1.1c-0.4,0.3-0.8,0.6-1.1,1.1L109,51.5l6.2,8.7c11.4,16,12.9,37,3.9,54.4c-8.9,17.2-26,27.5-45.6,27.5   C65.6,142.2,57.9,140.5,50.9,137.1L50.9,137.1z"/>
	<path class="st5" d="M98.5,114.4c-1.4,0-2.5-1.1-2.5-2.5c0-0.6,0.2-1.1,0.5-1.5c5-6.4,7.8-14.2,8-22.3c0-1.4,1.2-2.5,2.6-2.4   c1.4,0,2.5,1.2,2.4,2.6c-0.3,9.1-3.5,18-9.1,25.2C100,114.1,99.2,114.4,98.5,114.4z"/>
	<path class="st5" d="M87.1,124.4c-1.4,0-2.5-1.1-2.5-2.5c0-0.9,0.5-1.7,1.2-2.2c0.2-0.1,0.4-0.3,0.7-0.4c1.2-0.7,2.7-0.3,3.4,0.8   s0.3,2.7-0.8,3.4c-0.3,0.2-0.5,0.3-0.8,0.5C88,124.2,87.6,124.4,87.1,124.4z"/>
</g>
</svg>
